<svg version="1.1" xmlns="http://www.w3.org/2000/svg" width="512px" height="512px" transform="rotate(0) scale(1, 1)">
<path d="M0 0 C1.10753584 -0.00467997 2.21507169 -0.00935994 3.35616922 -0.01418173 C7.06874458 -0.02615133 10.78095215 -0.01666648 14.49353027 -0.00723267 C17.15460794 -0.01129749 19.81566023 -0.0165303 22.47673035 -0.02316284 C28.95503822 -0.03649816 35.43324179 -0.03362336 41.91155374 -0.02492492 C47.17690981 -0.01814798 52.44223665 -0.01723169 57.70759583 -0.02049637 C58.83196225 -0.02118592 58.83196225 -0.02118592 59.97904316 -0.0218894 C61.50182657 -0.02284858 63.02460998 -0.02382122 64.54739338 -0.02480717 C78.82436998 -0.03336047 93.10128878 -0.02352788 107.3782559 -0.00740607 C119.62683334 0.00599707 131.87532547 0.00366896 144.12390137 -0.01016235 C158.35001514 -0.02621923 172.57607827 -0.03253651 186.80219984 -0.02332556 C188.31936104 -0.02236992 189.83652225 -0.02142681 191.35368347 -0.02049637 C192.473373 -0.01980213 192.473373 -0.01980213 193.61568251 -0.01909386 C198.87431931 -0.0165043 204.13292397 -0.02087425 209.39155579 -0.02793503 C215.8006528 -0.03635142 222.20963959 -0.03406701 228.61872399 -0.0180928 C231.88836154 -0.01021186 235.15777752 -0.00873195 238.42741966 -0.01704025 C241.97222374 -0.02521827 245.51650845 -0.01497868 249.0612793 0 C250.09415652 -0.00669217 251.12703374 -0.01338433 252.19121027 -0.02027929 C258.31243598 0.03001004 262.95237357 0.5732213 267.6751709 4.88095093 C271.08286696 9.25739001 272.15641545 12.08125507 272.14975166 17.55630875 C272.15090922 18.63433423 272.15206677 19.71235972 272.1532594 20.82305264 C272.14946267 22.01184231 272.14566593 23.20063197 272.14175415 24.42544556 C272.14175317 25.68488755 272.14175218 26.94432954 272.14175117 28.24193645 C272.14173691 31.01242256 272.13856241 33.78288138 272.13301277 36.55336189 C272.12403077 41.0608496 272.12192228 45.56832531 272.12080383 50.07582092 C272.11895281 55.7714614 272.11542482 61.46709647 272.10998623 67.16273466 C272.09953826 78.3558302 272.10377036 89.54887945 272.11361694 100.74197388 C272.11510454 102.50346605 272.11659039 104.26495822 272.11807454 106.0264504 C272.12112536 109.59298712 272.12425693 113.15952377 272.12743354 116.72606039 C272.13555498 125.89796989 272.14299272 135.06987949 272.14880371 144.24179077 C272.14939265 145.16235806 272.14998159 146.08292535 272.15058838 147.03138861 C272.1594532 161.94801267 272.14654984 176.86454925 272.12651099 191.78115895 C272.10653431 207.09188791 272.11315209 222.40244728 272.14365757 237.71315932 C272.16157196 247.15897596 272.1582244 256.60430103 272.12767331 266.05008736 C272.10865118 272.52399722 272.11517004 278.99756459 272.141813 285.47144637 C272.15640855 289.20724244 272.15960805 292.9421405 272.13228416 296.67788506 C272.10293896 300.72880532 272.1276692 304.77760664 272.15762329 308.82852173 C272.1318517 310.59832189 272.1318517 310.59832189 272.10555947 312.40387559 C272.19220249 318.01604858 272.40862971 321.44498732 276.48779106 325.51899338 C277.66377075 326.47909888 278.84399469 327.43405889 280.03063965 328.38095093 C284.99588234 335.8474813 284.93551388 344.73333845 284.03063965 353.38095093 C282.73798456 359.06404402 280.67019418 362.90130792 276.42590332 366.86703491 C271.71682945 372.16047163 272.11186863 377.35933857 272.2689209 384.16610718 C272.26611618 385.3811644 272.26331146 386.59622162 272.26042175 387.84809875 C272.25515974 391.71412718 272.29568246 395.57773794 272.34313965 399.44345093 C272.37468029 403.31235643 272.39591344 407.18047625 272.39372253 411.04951477 C272.39385204 413.45143158 272.41395938 415.85345385 272.45674133 418.25498962 C272.47412716 424.87509314 272.0799649 429.04521389 268.03063965 434.38095093 C261.98911952 439.06621144 257.43769517 439.50710775 250.01135254 439.39584351 C248.09493977 439.3764009 246.17852199 439.35744746 244.26210022 439.33891296 C243.24354006 439.32775263 242.2249799 439.31659229 241.17555428 439.30509377 C234.61311663 439.2438364 228.050328 439.2437809 221.48764896 439.23248768 C215.73928306 439.2191253 209.9925852 439.18476285 204.24475098 439.10336304 C198.67088434 439.02563949 193.09954095 439.00821045 187.52520561 439.02918053 C185.41758507 439.02675182 183.30986589 439.00353413 181.20274544 438.95755959 C165.64000694 438.63528799 156.0609825 441.97710498 143.33634758 450.8722744 C129.28354625 460.0673382 113.8305562 462.91990556 97.40466309 459.66171265 C84.24290498 456.70841989 71.24735527 452.93663867 58.3193512 449.10565186 C53.95935587 447.8181826 49.59178793 446.55871109 45.21813965 445.31845093 C44.35977509 445.07495911 43.50141052 444.83146729 42.61703491 444.58059692 C26.53131726 440.10178007 11.67551176 438.99951349 -4.96936035 440.38095093 C-4.54856201 441.12715698 -4.12776367 441.87336304 -3.69421387 442.6421814 C-2.87328247 444.11775513 -2.87328247 444.11775513 -2.0357666 445.62313843 C-1.49121826 446.59621948 -0.94666992 447.56930054 -0.38562012 448.5718689 C2.32181023 453.94192468 2.56343493 458.26723295 0.84313965 464.06845093 C-1.98215687 472.33282096 -8.07157135 475.51089834 -15.34436035 479.50595093 C-16.74428223 480.29292358 -16.74428223 480.29292358 -18.17248535 481.09579468 C-20.76109104 482.54409389 -23.36212863 483.96653709 -25.96936035 485.38095093 C-27.0676416 485.98809937 -28.16592285 486.5952478 -29.29748535 487.22079468 C-34.42266148 489.4462001 -39.88442529 489.1746735 -45.2467041 487.79501343 C-54.63488814 483.86675216 -58.96330152 472.03062535 -63.59436035 463.63095093 C-64.83577316 461.39614542 -66.07797275 459.16177679 -67.32092285 456.92782593 C-67.93612793 455.82116577 -68.55133301 454.71450562 -69.18518066 453.5743103 C-71.74626685 448.99042863 -74.35409429 444.43407181 -76.96936035 439.88095093 C-81.9556706 431.18952356 -86.85829262 422.4530381 -91.74304199 413.70419312 C-95.08617293 407.72316274 -98.45556077 401.75870303 -101.86682129 395.81625366 C-103.35988049 393.21286777 -104.84283568 390.60392838 -106.3248291 387.99423218 C-107.9307178 385.17139446 -109.57049676 382.37868439 -111.2701416 379.61141968 C-115.47850014 372.50190816 -117.62395003 366.67770635 -115.96936035 358.38095093 C-113.46622957 351.34608574 -108.21234634 347.95563219 -101.96936035 344.38095093 C-101.33369141 344.01260132 -100.69802246 343.64425171 -100.04309082 343.26473999 C-84.43286594 334.23618205 -84.43286594 334.23618205 -76.78186035 334.31845093 C-75.69518066 334.32747437 -74.60850098 334.3364978 -73.4888916 334.34579468 C-72.24172363 334.36319702 -72.24172363 334.36319702 -70.96936035 334.38095093 C-70.96846472 333.51210051 -70.96846472 333.51210051 -70.96755099 332.62569755 C-70.93165798 298.29649802 -70.8750205 263.96740013 -70.7914394 229.6382839 C-70.78142193 225.51645517 -70.7715778 221.39462604 -70.76184082 217.27279663 C-70.75989945 216.45221374 -70.75795807 215.63163085 -70.75595787 214.78618181 C-70.72493576 201.49896968 -70.70795663 188.21177482 -70.69616613 174.9245333 C-70.68375566 161.29085059 -70.65625662 147.65725854 -70.61474729 134.02363306 C-70.58960887 125.61075794 -70.57624332 117.19803317 -70.57793078 108.78511996 C-70.57796053 103.01626502 -70.56333572 97.24756324 -70.53719607 91.47876798 C-70.52254619 88.15021687 -70.51652181 84.82224412 -70.52355766 81.49362755 C-70.53017383 77.88301339 -70.51233205 74.27331769 -70.48834229 70.66279602 C-70.4961027 69.61317513 -70.50386312 68.56355424 -70.5118587 67.48212665 C-70.40485832 58.39806757 -67.56257375 53.60423216 -61.11242676 47.13583374 C-60.64355545 46.66170547 -60.17468414 46.18757721 -59.69160461 45.69908142 C-58.15877156 44.15317737 -56.6153863 42.6183537 -55.07092285 41.08407593 C-53.99198344 40.00311241 -52.91348942 38.92170416 -51.8354187 37.83987427 C-49.58249681 35.58254678 -47.32428288 33.33069043 -45.06213379 31.08261108 C-42.17144835 28.20903692 -39.29446997 25.32217423 -36.42131996 22.43107986 C-34.19962467 20.19851657 -31.97079956 17.97318147 -29.73978806 15.74993134 C-28.67631566 14.68845154 -27.61504331 13.62476259 -26.55607986 12.55878448 C-25.0729117 11.0679498 -23.58038013 9.58714631 -22.08508301 8.10848999 C-21.23999176 7.26578552 -20.39490051 6.42308105 -19.52420044 5.55484009 C-13.24895757 0.21529554 -7.91444016 -0.05127883 0 0 Z M-0.96936035 17.38095093 C-1.29936035 31.90095093 -1.62936035 46.42095093 -1.96936035 61.38095093 C-5.96936035 67.38095093 -5.96936035 67.38095093 -12.96936035 69.38095093 C-26.16936035 69.71095093 -39.36936035 70.04095093 -52.96936035 70.38095093 C-52.96936035 162.12095093 -52.96936035 253.86095093 -52.96936035 348.38095093 C-45.29262581 344.6854963 -45.29262581 344.6854963 -37.96936035 340.38095093 C-37.50141393 338.35757779 -37.50141393 338.35757779 -37.55285645 335.99472046 C-37.53628998 335.0868277 -37.51972351 334.17893494 -37.50265503 333.24353027 C-37.49940216 332.26020721 -37.49614929 331.27688416 -37.49279785 330.26376343 C-37.47721832 329.25506195 -37.46163879 328.24636047 -37.44558716 327.20709229 C-37.39793479 323.97338683 -37.37027415 320.73989759 -37.34436035 317.50595093 C-37.30785216 314.27929968 -37.26717019 311.05277035 -37.22171021 307.82623291 C-37.19453103 305.81631567 -37.17315921 303.80630978 -37.15817261 301.79626465 C-37.14277939 300.42496902 -37.14277939 300.42496902 -37.1270752 299.02597046 C-37.12057953 298.22370026 -37.11408386 297.42143005 -37.10739136 296.59484863 C-36.97099243 294.4071281 -36.57220478 292.48375606 -35.96936035 290.38095093 C-33.07720254 289.55971237 -30.46655425 289.23787935 -27.46374512 289.18807983 C-26.13700523 289.16398544 -26.13700523 289.16398544 -24.78346252 289.1394043 C-20.76104744 289.09474997 -16.73879141 289.05392689 -12.71618652 289.03085327 C-10.59498139 289.01426484 -8.47383281 288.98693715 -6.35290527 288.94882202 C-3.28856533 288.89408041 -0.22552945 288.87218751 2.8392334 288.85751343 C3.78519882 288.83484406 4.73116425 288.81217468 5.70579529 288.78881836 C10.26098108 288.80344407 12.36641919 288.89054566 16.12341309 291.66439819 C17.91525061 294.21659687 18.6635751 295.33130442 18.7376709 298.36923218 C18.76578857 299.00643188 18.79390625 299.64363159 18.82287598 300.30014038 C18.82956299 301.08993286 18.83625 301.87972534 18.84313965 302.69345093 C18.90501465 305.23032593 18.96688965 307.76720093 19.03063965 310.38095093 C24.64063965 310.05095093 30.25063965 309.72095093 36.03063965 309.38095093 C36.03998535 307.43285522 36.04933105 305.48475952 36.05895996 303.47763062 C36.09448837 297.03933904 36.14828665 290.60140274 36.21454239 284.16335678 C36.25404311 280.26012242 36.28621855 276.35711452 36.30163574 272.45370483 C36.31678572 268.68626683 36.35120037 264.9194513 36.39894867 261.15229034 C36.41377985 259.71545066 36.42168167 258.27852212 36.4225235 256.84160614 C36.42488929 254.82824845 36.4542303 252.81497724 36.48474121 250.80184937 C36.49806488 249.08309601 36.49806488 249.08309601 36.51165771 247.32962036 C37.14874806 243.70990126 38.07303956 242.51963141 41.03063965 240.38095093 C43.2310791 239.87974548 43.2310791 239.87974548 45.6439209 239.87924194 C46.5516626 239.86986099 47.4594043 239.86048004 48.39465332 239.85081482 C49.85415405 239.86766579 49.85415405 239.86766579 51.34313965 239.88485718 C52.85194702 239.88267433 52.85194702 239.88267433 54.39123535 239.88044739 C56.51618346 239.88210609 58.64114361 239.89366405 60.76599121 239.91439819 C64.0187889 239.94334547 67.26995615 239.93500756 70.52282715 239.92196655 C72.58793924 239.92820426 74.65304618 239.93659545 76.71813965 239.94735718 C77.69114014 239.94442154 78.66414062 239.9414859 79.66662598 239.9384613 C80.57436768 239.95114548 81.48210937 239.96382965 82.4173584 239.97689819 C83.21359619 239.98230118 84.00983398 239.98770416 84.8302002 239.99327087 C87.79708017 240.51598473 89.01972018 241.10259316 91.03063965 243.38095093 C91.44149425 246.19111085 91.59481078 248.61846896 91.57653809 251.4324646 C91.58687576 252.25220261 91.59721344 253.07194061 91.60786438 253.91651917 C91.63737515 256.62751789 91.63879327 259.33777271 91.64001465 262.04891968 C91.65499074 263.9279473 91.67171668 265.80696173 91.69012451 267.68595886 C91.73387444 272.63269646 91.75381401 277.57925647 91.76885986 282.52615356 C91.78840345 287.57356297 91.83037649 292.62077982 91.8704834 297.6680603 C91.9458685 307.57233048 91.99403699 317.4764614 92.03063965 327.38095093 C97.64063965 328.70095093 103.25063965 330.02095093 109.03063965 331.38095093 C109.05045898 329.31168335 109.07027832 327.24241577 109.09069824 325.11044312 C109.15760911 318.27310295 109.23524857 311.43591492 109.31816673 304.59875107 C109.36810977 300.45343115 109.41443994 296.30813647 109.45251465 292.16268921 C109.4893927 288.16200105 109.53575942 284.16152505 109.58870316 280.16101837 C109.60723373 278.63484672 109.62234665 277.10862961 109.63398361 275.58238983 C109.65086917 273.44438459 109.67990893 271.30686378 109.71179199 269.16903687 C109.72511566 267.95214172 109.73843933 266.73524658 109.75216675 265.48147583 C110.01791941 262.52257836 110.38332855 260.82305289 112.03063965 258.38095093 C114.42234911 257.1850962 115.94574593 257.23527527 118.61633301 257.20394897 C119.56749496 257.19111374 120.51865692 257.1782785 121.49864197 257.16505432 C123.04395348 257.15397392 123.04395348 257.15397392 124.6204834 257.14266968 C125.67594864 257.13459793 126.73141388 257.12652618 127.81886292 257.11820984 C130.05407058 257.10436516 132.28929941 257.09364473 134.52453613 257.08578491 C137.95080249 257.0685382 141.37611255 257.0246509 144.80212402 256.9805603 C146.9707367 256.97043666 149.1393576 256.96191953 151.3079834 256.95516968 C152.33616684 256.93766159 153.36435028 256.9201535 154.4236908 256.90211487 C155.37800491 256.90504044 156.33231903 256.907966 157.31555176 256.91098022 C158.15557236 256.90511398 158.99559296 256.89924774 159.86106873 256.89320374 C162.03063965 257.38095093 162.03063965 257.38095093 163.79830933 258.8311615 C165.6745279 262.71320693 165.46993387 266.38760297 165.4630127 270.64755249 C165.47830017 272.05294281 165.47830017 272.05294281 165.49389648 273.48672485 C165.52407619 276.58173565 165.53330013 279.67643719 165.5423584 282.77157593 C165.55920137 284.91821322 165.57735109 287.06484063 165.59675598 289.2114563 C165.6443034 294.86012686 165.6740822 300.50875735 165.70019531 306.15756226 C165.72997683 311.92220984 165.77651544 317.68671927 165.82165527 323.45126343 C165.90774241 334.76108706 165.97506372 346.0709391 166.03063965 357.38095093 C167.55280199 356.63365191 169.07329228 355.88294694 170.59313965 355.13095093 C171.86351074 354.50446655 171.86351074 354.50446655 173.1595459 353.86532593 C174.10700684 353.37548218 175.05446777 352.88563843 176.03063965 352.38095093 C177.28081375 351.96764526 178.53098785 351.5543396 179.81904602 351.12850952 C181.70347163 350.15296525 181.70347163 350.15296525 183.03063965 348.38095093 C184.10921632 343.51272158 183.93188125 338.62949678 183.8536377 333.67001343 C183.85497739 332.1389815 183.8594497 330.60794958 183.86682129 329.07693481 C183.87607059 325.78080119 183.86335319 322.48573886 183.83368492 319.18972778 C183.78712863 313.97933958 183.79049788 308.76971539 183.80085754 303.55917358 C183.81268115 294.38050252 183.78175991 285.20234364 183.74169922 276.02377319 C183.68188229 262.20382047 183.6574377 248.38383785 183.66994506 234.56376457 C183.67305762 229.38296835 183.65456276 224.20282519 183.61895216 219.02215576 C183.60042423 215.8010203 183.59807566 212.58001527 183.59986115 209.35883331 C183.59719987 207.86402756 183.58762033 206.36921588 183.5706501 204.87450409 C183.5483651 202.83559258 183.55286249 200.79644053 183.5587616 198.75741577 C183.55335704 197.61590057 183.54795248 196.47438538 183.54238415 195.29827881 C184.13885439 191.73436756 185.20696017 190.56403614 188.03063965 188.38095093 C190.27577209 187.89320374 190.27577209 187.89320374 192.75158691 187.91098022 C193.68257706 187.90805466 194.6135672 187.90512909 195.57276917 187.90211487 C197.06978615 187.928377 197.06978615 187.928377 198.5970459 187.95516968 C199.6274852 187.95845779 200.6579245 187.96174591 201.71958923 187.96513367 C203.89584679 187.97554964 206.07207664 187.99549122 208.24816895 188.02426147 C211.58401706 188.06833041 214.91914586 188.08569701 218.25524902 188.0977478 C220.36919172 188.11117224 222.48312555 188.1260953 224.5970459 188.14266968 C225.59708145 188.15005661 226.597117 188.15744354 227.62745667 188.16505432 C228.55529465 188.17788956 229.48313263 188.19072479 230.43908691 188.20394897 C231.66342186 188.21871529 231.66342186 188.21871529 232.91249084 188.23377991 C235.03063965 188.38095093 235.03063965 188.38095093 238.03063965 189.38095093 C239.20091764 192.38296143 239.16623462 195.3763561 239.18885803 198.56948853 C239.20354126 200.14276917 239.20354126 200.14276917 239.21852112 201.74783325 C239.22427658 202.89294373 239.23003204 204.0380542 239.23596191 205.21786499 C239.24586151 206.42789185 239.25576111 207.6379187 239.26596069 208.88461304 C239.29212564 212.19831479 239.31399706 215.51199274 239.33396268 218.82573414 C239.35585206 222.29043463 239.38322629 225.75509167 239.41001892 229.21975708 C239.45990593 235.77863722 239.50485954 242.33754153 239.54804128 248.89646888 C239.59744781 256.36440466 239.65235326 263.83229685 239.70772088 271.30019045 C239.82147963 286.66040388 239.92813688 302.02065803 240.03063965 317.38095093 C244.98063965 317.05095093 249.93063965 316.72095093 255.03063965 316.38095093 C255.03063965 217.71095093 255.03063965 119.04095093 255.03063965 17.38095093 C170.55063965 17.38095093 86.07063965 17.38095093 -0.96936035 17.38095093 Z M-23.8795166 35.15829468 C-24.36641464 35.64423599 -24.85331268 36.13017731 -25.35496521 36.63084412 C-26.38594614 37.66114314 -27.41565966 38.69271171 -28.44421387 39.72543335 C-30.0250603 41.31162787 -31.61115621 42.89243107 -33.19787598 44.4727478 C-34.19624366 45.47177627 -35.19430111 46.47111488 -36.1920166 47.47079468 C-37.56498901 48.84545898 -37.56498901 48.84545898 -38.96569824 50.24789429 C-41.08346935 52.01467355 -41.08346935 52.01467355 -40.96936035 53.38095093 C-33.37936035 53.38095093 -25.78936035 53.38095093 -17.96936035 53.38095093 C-17.96936035 45.79095093 -17.96936035 38.20095093 -17.96936035 30.38095093 C-20.1426044 30.38095093 -22.51535983 33.79581687 -23.8795166 35.15829468 Z M200.03063965 204.38095093 C200.03063965 248.27095093 200.03063965 292.16095093 200.03063965 337.38095093 C212.05523633 332.07590731 212.05523633 332.07590731 223.03063965 324.38095093 C223.12652089 322.82474697 223.15251998 321.26418639 223.15089417 319.70503235 C223.15226883 318.6939592 223.15364349 317.68288605 223.15505981 316.64117432 C223.15146454 315.52268097 223.14786926 314.40418762 223.14416504 313.25180054 C223.14431107 312.08122604 223.14445709 310.91065155 223.14460754 309.7046051 C223.1440286 306.4857415 223.13899956 303.26692089 223.13203359 300.0480659 C223.12579921 296.68747693 223.12519618 293.3268872 223.12400818 289.96629333 C223.12089511 283.59852751 223.11268205 277.23077877 223.10265869 270.86302048 C223.0914968 263.61525364 223.08598691 256.367486 223.08096325 249.11971271 C223.07049941 234.20678102 223.05215424 219.29387153 223.03063965 204.38095093 C215.44063965 204.38095093 207.85063965 204.38095093 200.03063965 204.38095093 Z M53.03063965 256.38095093 C53.03063965 275.19095093 53.03063965 294.00095093 53.03063965 313.38095093 C63.88184237 317.84879027 63.88184237 317.84879027 75.03063965 321.38095093 C75.03063965 299.93095093 75.03063965 278.48095093 75.03063965 256.38095093 C67.77063965 256.38095093 60.51063965 256.38095093 53.03063965 256.38095093 Z M126.03063965 272.38095093 C125.8267334 280.58739302 125.66188021 288.7918442 125.5643301 297.00014496 C125.51749338 300.81228752 125.45405273 304.62259753 125.35168457 308.4336853 C125.25338275 312.11673259 125.19998046 315.79802606 125.17674446 319.48228455 C125.16020312 320.88266099 125.12789721 322.28294874 125.07906914 323.68257141 C124.66943558 331.81639298 124.66943558 331.81639298 128.0062561 338.92294312 C130.36153508 341.05140242 130.36153508 341.05140242 132.84864807 342.72946167 C137.0316416 345.89545412 138.40760212 350.51183835 140.03063965 355.38095093 C140.12568593 357.52508316 140.16051191 359.67221863 140.15563965 361.81845093 C140.15821777 362.95153687 140.1607959 364.0846228 140.16345215 365.25204468 C140.05389158 367.83316276 139.78928842 369.93039497 139.03063965 372.38095093 C144.58961492 370.81734322 144.58961492 370.81734322 149.03063965 367.38095093 C149.41111896 364.24284148 149.5361649 361.45754284 149.48474121 358.31967163 C149.48532532 357.39264435 149.48590942 356.46561707 149.48651123 355.51049805 C149.48372148 352.44219696 149.45258712 349.37486383 149.42126465 346.30673218 C149.41380544 344.18110179 149.408111 342.05546454 149.40411377 339.92982483 C149.38883233 334.33187921 149.34952862 328.73434793 149.30529785 323.13656616 C149.26439941 317.42576707 149.24611434 311.7149011 149.22595215 306.0039978 C149.18303691 294.79610406 149.11266627 283.58862675 149.03063965 272.38095093 C141.44063965 272.38095093 133.85063965 272.38095093 126.03063965 272.38095093 Z M-20.96936035 305.38095093 C-20.96936035 313.30095093 -20.96936035 321.22095093 -20.96936035 329.38095093 C-17.57819884 328.02448632 -14.67942197 326.75782004 -11.5435791 324.99813843 C-10.74758301 324.55341187 -9.95158691 324.1086853 -9.13146973 323.65048218 C-8.31484863 323.19028687 -7.49822754 322.73009155 -6.65686035 322.25595093 C-5.4029248 321.5540564 -5.4029248 321.5540564 -4.12365723 320.83798218 C-2.07071332 319.68833359 -0.01983053 318.53500579 2.03063965 317.38095093 C2.03063965 313.42095093 2.03063965 309.46095093 2.03063965 305.38095093 C-5.55936035 305.38095093 -13.14936035 305.38095093 -20.96936035 305.38095093 Z M-25.96936035 352.38095093 C-28.10855925 353.64287993 -30.24788191 354.90459917 -32.3873291 356.16610718 C-37.58447574 359.23243599 -42.77828457 362.30435685 -47.96936035 365.38095093 C-37.52646518 385.35180484 -26.17010387 404.82928492 -14.96936035 424.38095093 C-10.79069971 422.81212044 -7.21205586 420.77362847 -3.44592285 418.40438843 C2.21143852 416.0664883 8.00658501 417.64224368 13.68395996 419.2293396 C14.41524109 419.42613312 15.14652222 419.62292664 15.89996338 419.82568359 C18.30522977 420.47514776 20.70690582 421.13697551 23.10876465 421.79891968 C24.8018081 422.25855644 26.49506998 422.71738929 28.1885376 423.17546082 C32.64837103 424.38402008 37.10529462 425.60298152 41.56164551 426.8243103 C46.03148585 428.04762658 50.5037517 429.26199953 54.97595215 430.47665405 C60.03990492 431.85219002 65.10366558 433.22835489 70.16522217 434.61268616 C73.99950463 435.66128488 77.83577427 436.70235675 81.67298889 437.74016953 C83.30226145 438.18298641 84.93061583 438.62919048 86.55821228 439.07812881 C89.10288232 439.78001578 91.64999591 440.47238838 94.19763184 441.16342163 C94.96477131 441.37759074 95.73191078 441.59175985 96.52229691 441.81241894 C110.00858617 445.43646636 121.36671818 443.8095159 133.4173584 436.90048218 C138.67576739 433.81417347 143.85390519 430.60171411 149.03063965 427.38095093 C150.7125279 426.34253683 152.39481397 425.30476676 154.07751465 424.26766968 C157.53281633 422.13521292 160.98413726 419.99648772 164.4329834 417.85360718 C170.51762838 414.07495054 176.61709829 410.32055953 182.71813965 406.56845093 C183.80949219 405.89717163 184.90084473 405.22589233 186.02526855 404.53427124 C188.25015396 403.16586394 190.47508908 401.79753749 192.70007324 400.42929077 C199.22014918 396.41936282 205.73877499 392.40707781 212.25744629 388.39486694 C218.36800389 384.63406252 224.47958153 380.8749297 230.59306335 377.11888123 C234.43319259 374.7590397 238.26944642 372.39298034 242.1048584 370.02548218 C245.76065386 367.77040156 249.42722596 365.53642744 253.1126709 363.33016968 C253.86016602 362.87754761 254.60766113 362.42492554 255.37780762 361.95858765 C256.71366444 361.15008379 258.05470381 360.35004212 259.40222168 359.56112671 C263.08054355 357.31799713 265.28540117 355.34740202 267.03063965 351.38095093 C267.90868827 346.3895214 267.54785276 342.41537715 265.28063965 337.88095093 C262.49262181 334.78315332 260.58131625 333.58179157 256.43688965 333.04501343 C236.6949467 332.77966473 220.06613254 345.28236483 203.72253418 355.02670288 C191.56586754 362.27397472 179.31319825 369.34904862 167.03063965 376.38095093 C166.19307129 376.86241577 165.35550293 377.34388062 164.49255371 377.8399353 C138.11387842 392.99246576 117.94077899 392.89620948 88.79333496 385.03483582 C86.12056262 384.30266061 83.45058567 383.56085815 80.78063965 382.81845093 C78.95146402 382.31818163 77.12203735 381.81882934 75.2923584 381.32040405 C67.04713954 379.06856998 67.04713954 379.06856998 63.11352539 377.95440674 C61.73300495 377.57432469 60.34568334 377.21808117 58.95263672 376.88684082 C57.03161621 376.41244507 57.03161621 376.41244507 54.03063965 375.38095093 C52.83309147 371.78830641 52.69969006 369.15377619 53.03063965 365.38095093 C54.59313965 362.94345093 54.59313965 362.94345093 57.03063965 361.38095093 C62.53055849 360.97776622 67.06616863 361.96828683 72.27282715 363.49813843 C73.04063507 363.71535553 73.80844299 363.93257263 74.59951782 364.15637207 C77.03743212 364.84766177 79.4715886 365.55119195 81.90563965 366.25595093 C84.33314647 366.95125236 86.76137816 367.64389889 89.19033813 368.33410645 C90.69513396 368.76250398 92.19901573 369.19413169 93.70175171 369.62969971 C105.73928822 373.39082789 105.73928822 373.39082789 118.03063965 372.38095093 C120.73616353 370.18271278 122.47842298 368.48538426 124.03063965 365.38095093 C124.42831056 361.2451734 124.27848974 358.8766511 122.40563965 355.13095093 C117.27484076 349.1900259 110.1120643 348.34310746 102.78063965 346.74423218 C89.17761982 343.6271231 76.16936054 339.22965328 63.03063965 334.56845093 C59.72692005 333.39999734 56.42205908 332.23545105 53.11291504 331.08244324 C51.08283095 330.37491417 49.05571112 329.65879429 47.03234863 328.93226624 C19.85947739 319.45047551 -3.43978553 339.05394766 -25.96936035 352.38095093 Z M-88.65686035 356.63095093 C-89.53664551 357.12208374 -90.41643066 357.61321655 -91.32287598 358.11923218 C-92.57681152 358.84432983 -92.57681152 358.84432983 -93.8560791 359.58407593 C-94.62137939 360.02396851 -95.38667969 360.46386108 -96.1751709 360.91708374 C-98.07308663 362.25286883 -98.07308663 362.25286883 -98.86950684 364.26742554 C-99.0047825 367.13070529 -98.12682892 368.52854288 -96.68029785 370.99423218 C-96.15758301 371.90044312 -95.63486816 372.80665405 -95.09631348 373.74032593 C-94.51816895 374.71485718 -93.94002441 375.68938843 -93.34436035 376.69345093 C-92.1330994 378.78310722 -90.92217096 380.87295629 -89.71154785 382.96298218 C-89.08731934 384.03113159 -88.46309082 385.09928101 -87.81994629 386.19979858 C-84.98869661 391.06670931 -82.23049891 395.97404466 -79.46936035 400.88095093 C-78.38250183 402.80434339 -77.29526121 404.72751999 -76.2076416 406.65048218 C-74.0782351 410.41769699 -71.95074712 414.18598523 -69.8248291 417.95516968 C-64.08108259 428.13541013 -58.31874702 438.3050313 -52.52908325 448.45922852 C-51.83238287 449.68154897 -51.1362203 450.90417615 -50.44064331 452.12713623 C-46.74119264 458.62971571 -42.99368353 465.07359826 -38.96936035 471.38095093 C-33.71574585 470.84508225 -29.67496503 468.19447763 -25.21936035 465.56845093 C-24.43947754 465.12952515 -23.65959473 464.69059937 -22.8560791 464.2383728 C-22.11486816 463.80460327 -21.37365723 463.37083374 -20.60998535 462.92391968 C-19.93483887 462.53228638 -19.25969238 462.14065308 -18.56408691 461.7371521 C-16.85196712 460.47511705 -16.85196712 460.47511705 -16.11022949 458.50106812 C-15.92397913 455.69795174 -16.70115538 454.35753849 -18.0748291 451.91610718 C-18.55742187 451.04494263 -19.04001465 450.17377808 -19.53723145 449.2762146 C-20.07170898 448.34140259 -20.60618652 447.40659058 -21.15686035 446.44345093 C-21.70422852 445.46416626 -22.25159668 444.48488159 -22.81555176 443.47592163 C-24.51978206 440.4362797 -26.24186237 437.40742026 -27.96936035 434.38095093 C-28.47257812 433.49568726 -28.9757959 432.61042358 -29.4942627 431.69833374 C-31.93109754 427.41323202 -34.38026914 423.1354002 -36.83654785 418.86141968 C-40.25916648 412.89302472 -43.61544951 406.8881473 -46.96936035 400.88095093 C-51.85035625 392.14195044 -56.77793715 383.4317404 -61.75549316 374.74740601 C-66.20425322 366.98324608 -70.59649683 359.18805828 -74.96936035 351.38095093 C-80.55350883 351.38095093 -83.91960993 353.86667563 -88.65686035 356.63095093 Z M248.3939209 385.17001343 C247.43550293 385.77498657 246.47708496 386.37995972 245.48962402 387.00326538 C244.45128418 387.66415161 243.41294434 388.32503784 242.34313965 389.00595093 C240.15247404 390.38863549 237.96104856 391.77011675 235.7689209 393.15048218 C235.20883331 393.50355942 234.64874573 393.85663666 234.07168579 394.22041321 C228.42820444 397.77251658 222.73401022 401.23865391 217.03063965 404.69345093 C210.20408788 408.83747762 203.3804177 412.98530771 196.59313965 417.19345093 C195.91831543 417.60828735 195.24349121 418.02312378 194.54821777 418.45053101 C193.02465966 419.39949588 191.52444282 420.38580484 190.03063965 421.38095093 C190.03063965 421.71095093 190.03063965 422.04095093 190.03063965 422.38095093 C211.48063965 422.38095093 232.93063965 422.38095093 255.03063965 422.38095093 C255.03063965 409.18095093 255.03063965 395.98095093 255.03063965 382.38095093 C252.1929759 382.38095093 250.78513498 383.65033365 248.3939209 385.17001343 Z " fill="#00ff00" transform="translate(171.9693603515625,11.619049072265625)"/>
<path d="M0 0 C2.125 2.125 2.125 2.125 3.125 4.125 C3.08638141 6.56094211 2.98335617 8.94765427 2.8125 11.375 C2.76254883 12.08503174 2.71259766 12.79506348 2.66113281 13.52661133 C2.49573844 15.72738406 2.31370147 17.92611051 2.125 20.125 C2.04209717 21.13602783 2.04209717 21.13602783 1.95751953 22.16748047 C1.79126762 24.05182584 1.58389947 25.93240474 1.375 27.8125 C1.19710937 29.45798828 1.19710937 29.45798828 1.015625 31.13671875 C-0.1230917 34.95741295 -1.80139153 36.63705696 -4.875 39.125 C-8.4375 39.6875 -8.4375 39.6875 -11.875 39.125 C-14.56158014 37.01930205 -15.97567884 34.97398175 -17.875 32.125 C-18.91617226 33.19615051 -18.91617226 33.19615051 -19.9783783 34.28894043 C-26.52988672 41.02307151 -33.10516805 47.73317431 -39.70432186 54.42063141 C-43.09613207 57.85936658 -46.47908462 61.30594439 -49.84301758 64.77197266 C-53.09115308 68.1180602 -56.36093429 71.44152722 -59.64673042 74.75062561 C-60.89496445 76.01546042 -62.13526336 77.2881783 -63.36726189 78.5688324 C-65.09794902 80.36508575 -66.85504036 82.1309333 -68.62084961 83.89257812 C-69.12148422 84.42557022 -69.62211884 84.95856232 -70.13792419 85.50770569 C-73.11435008 88.40928225 -75.34012736 89.46260317 -79.39639282 89.55232239 C-83.03475755 89.32491071 -86.32043209 88.68226947 -89.78686523 87.52026367 C-90.8550499 87.16957321 -91.92323456 86.81888275 -93.02378845 86.45756531 C-94.1490242 86.07324844 -95.27425995 85.68893158 -96.43359375 85.29296875 C-97.61792496 84.90055496 -98.80225616 84.50814117 -100.0224762 84.10383606 C-103.15361541 83.06397333 -106.28066045 82.01286933 -109.40600586 80.95574951 C-113.79661729 79.47436092 -118.19515848 78.01663023 -122.59181213 76.55329895 C-124.92474231 75.77528555 -127.25662542 74.99412276 -129.58726501 74.20927429 C-132.67953304 73.16975913 -135.77602414 72.14432027 -138.875 71.125 C-139.82230988 70.80665192 -140.76961975 70.48830383 -141.74563599 70.16030884 C-142.62758636 69.8757785 -143.50953674 69.59124817 -144.41821289 69.2980957 C-145.18541153 69.04623001 -145.95261017 68.79436432 -146.74305725 68.53486633 C-149.82086766 67.94315679 -151.91163742 68.53910915 -154.55981445 70.1496582 C-155.1137085 70.57077881 -155.66760254 70.99189941 -156.23828125 71.42578125 C-157.18610474 72.14048584 -157.18610474 72.14048584 -158.15307617 72.86962891 C-159.16011597 73.6457251 -159.16011597 73.6457251 -160.1875 74.4375 C-160.89173096 74.97294434 -161.59596191 75.50838867 -162.3215332 76.06005859 C-167.76037773 80.21556661 -173.11609086 84.47258392 -178.4453125 88.76733398 C-183.35723807 92.72538115 -188.33453922 96.58451204 -193.34765625 100.4140625 C-196.03741611 102.47300684 -198.70681317 104.55663309 -201.37109375 106.6484375 C-202.15766357 107.26477051 -202.9442334 107.88110352 -203.75463867 108.51611328 C-205.28677004 109.71764261 -206.81701647 110.92158114 -208.3449707 112.12841797 C-221.83819184 122.69413674 -221.83819184 122.69413674 -227.125 123.8125 C-231.02640176 122.83714956 -232.52922687 121.36768638 -234.875 118.125 C-235.5 114.625 -235.5 114.625 -234.875 111.125 C-227.0963146 102.54779468 -217.35403023 95.66628197 -208.08081055 88.79858398 C-203.23991271 85.19609529 -198.53498015 81.45792369 -193.875 77.625 C-187.92772793 72.73804907 -181.87949948 68.02537498 -175.68164062 63.45996094 C-172.47515313 61.09553321 -169.32478927 58.7008386 -166.26171875 56.15234375 C-165.68897217 55.68401123 -165.11622559 55.21567871 -164.52612305 54.7331543 C-162.98538677 53.46580017 -161.46076863 52.17892134 -159.9375 50.890625 C-155.09773416 48.10035184 -151.06107452 48.57190493 -145.80633545 49.90139771 C-142.09680751 51.02823988 -138.4176203 52.23276396 -134.7421875 53.46484375 C-133.37831702 53.91200508 -132.01406188 54.35799467 -130.64944458 54.8028717 C-127.07444855 55.97117358 -123.50398315 57.15271688 -119.93457031 58.33795166 C-114.21684666 60.23432788 -108.49279521 62.11146343 -102.7680397 63.98648262 C-100.77797965 64.64057952 -98.79010989 65.30100876 -96.80245972 65.96238708 C-95.58744781 66.36272659 -94.37243591 66.7630661 -93.12060547 67.17553711 C-92.05663544 67.52861435 -90.99266541 67.88169159 -89.89645386 68.24546814 C-85.453399 69.57076725 -85.453399 69.57076725 -80.875 70.125 C-78.25620361 68.52673042 -78.25620361 68.52673042 -75.94287109 66.00341797 C-75.0152597 65.07850555 -74.08764832 64.15359314 -73.13192749 63.20065308 C-72.13698602 62.17326179 -71.14250045 61.14542883 -70.1484375 60.1171875 C-69.11430893 59.07253241 -68.07869135 58.02934941 -67.04165649 56.98757935 C-64.31475765 54.23963268 -61.6099316 51.47089283 -58.90875244 48.69769287 C-56.70825746 46.44553966 -54.49304741 44.20819398 -52.27676964 41.97158623 C-47.68502804 37.33738575 -43.10533451 32.69132458 -38.54833984 28.02294922 C-37.74036957 27.19608612 -36.93239929 26.36922302 -36.09994507 25.51730347 C-33.89145392 23.14269157 -31.86642009 20.68304876 -29.875 18.125 C-30.82375 17.691875 -31.7725 17.25875 -32.75 16.8125 C-35.875 15.125 -35.875 15.125 -37.875 12.125 C-38.54592652 5.97484026 -38.54592652 5.97484026 -36 2.75 C-32.9188222 0.39380521 -30.92773207 -0.06441956 -27.11328125 -0.41015625 C-26.15873047 -0.49716797 -25.20417969 -0.58417969 -24.22070312 -0.67382812 C-23.21974609 -0.76083984 -22.21878906 -0.84785156 -21.1875 -0.9375 C-20.20587891 -1.02837891 -19.22425781 -1.11925781 -18.21289062 -1.21289062 C-3.82736354 -2.49610666 -3.82736354 -2.49610666 0 0 Z " fill="#00ff00" transform="translate(388.875,152.875)"/>
<path d="M0 0 C1.38151497 -0.00856522 1.38151497 -0.00856522 2.79093933 -0.01730347 C3.79930847 -0.01842133 4.80767761 -0.01953918 5.84660339 -0.02069092 C7.44214302 -0.02813828 7.44214302 -0.02813828 9.06991577 -0.03573608 C12.5959894 -0.05036551 16.12201805 -0.05716104 19.64811707 -0.06268311 C22.0956828 -0.06843392 24.54324851 -0.07419166 26.99081421 -0.07995605 C32.12633983 -0.09046827 37.26184978 -0.0963095 42.39738464 -0.09979248 C48.97820598 -0.1052776 55.55882046 -0.12930531 62.13957691 -0.15776443 C67.19676315 -0.17638717 72.25389954 -0.18159623 77.31111717 -0.18312836 C79.7372062 -0.18615623 82.16329433 -0.19418925 84.58934975 -0.20731354 C87.98385485 -0.22436592 91.3778541 -0.22249548 94.77238464 -0.21600342 C95.77468109 -0.2252182 96.77697754 -0.23443298 97.80964661 -0.243927 C103.11050066 -0.21216559 106.95200295 0.09046991 111.50358582 3.14044189 C113.06829814 6.26986655 113.20060539 9.75126413 112.50358582 13.14044189 C111.16691589 15.23748779 111.16691589 15.23748779 108.50358582 17.14044189 C104.83153908 17.75929369 101.18071374 17.68629928 97.46452332 17.65802002 C96.3389502 17.6650293 95.21337708 17.67203857 94.05369568 17.67926025 C90.32840903 17.69688349 86.60388036 17.68520135 82.87858582 17.67169189 C80.29313511 17.67438554 77.70768539 17.6782669 75.12223816 17.68328857 C69.70172049 17.68918954 64.28148836 17.68098202 58.86100769 17.66192627 C52.59651144 17.64015752 46.33253593 17.64720904 40.06805229 17.66923189 C34.03877955 17.68957851 28.00976135 17.6874156 21.98045349 17.67570496 C19.41595894 17.67303314 16.85145113 17.67632331 14.28697205 17.68562317 C10.70517066 17.69576111 7.12437466 17.68032449 3.54264832 17.65802002 C1.94661774 17.67016541 1.94661774 17.67016541 0.31834412 17.68255615 C-6.85683426 17.59961467 -6.85683426 17.59961467 -10.15315247 15.23309326 C-12.31096444 11.87146379 -12.29577796 8.99479992 -11.49641418 5.14044189 C-8.31311499 0.85945333 -5.15589983 0.01915649 0 0 Z " fill="#00ff00" transform="translate(242.4964141845703,95.85955810546875)"/>
<path d="M0 0 C1.38151497 -0.00856522 1.38151497 -0.00856522 2.79093933 -0.01730347 C3.79930847 -0.01842133 4.80767761 -0.01953918 5.84660339 -0.02069092 C7.44214302 -0.02813828 7.44214302 -0.02813828 9.06991577 -0.03573608 C12.5959894 -0.05036551 16.12201805 -0.05716104 19.64811707 -0.06268311 C22.0956828 -0.06843392 24.54324851 -0.07419166 26.99081421 -0.07995605 C32.12633983 -0.09046827 37.26184978 -0.0963095 42.39738464 -0.09979248 C48.97820598 -0.1052776 55.55882046 -0.12930531 62.13957691 -0.15776443 C67.19676315 -0.17638717 72.25389954 -0.18159623 77.31111717 -0.18312836 C79.7372062 -0.18615623 82.16329433 -0.19418925 84.58934975 -0.20731354 C87.98385485 -0.22436592 91.3778541 -0.22249548 94.77238464 -0.21600342 C95.77468109 -0.2252182 96.77697754 -0.23443298 97.80964661 -0.243927 C103.11050066 -0.21216559 106.95200295 0.09046991 111.50358582 3.14044189 C113.06829814 6.26986655 113.20060539 9.75126413 112.50358582 13.14044189 C111.16691589 15.23748779 111.16691589 15.23748779 108.50358582 17.14044189 C104.83153908 17.75929369 101.18071374 17.68629928 97.46452332 17.65802002 C96.3389502 17.6650293 95.21337708 17.67203857 94.05369568 17.67926025 C90.32840903 17.69688349 86.60388036 17.68520135 82.87858582 17.67169189 C80.29313511 17.67438554 77.70768539 17.6782669 75.12223816 17.68328857 C69.70172049 17.68918954 64.28148836 17.68098202 58.86100769 17.66192627 C52.59651144 17.64015752 46.33253593 17.64720904 40.06805229 17.66923189 C34.03877955 17.68957851 28.00976135 17.6874156 21.98045349 17.67570496 C19.41595894 17.67303314 16.85145113 17.67632331 14.28697205 17.68562317 C10.70517066 17.69576111 7.12437466 17.68032449 3.54264832 17.65802002 C1.94661774 17.67016541 1.94661774 17.67016541 0.31834412 17.68255615 C-6.85683426 17.59961467 -6.85683426 17.59961467 -10.15315247 15.23309326 C-12.31096444 11.87146379 -12.29577796 8.99479992 -11.49641418 5.14044189 C-8.31311499 0.85945333 -5.15589983 0.01915649 0 0 Z " fill="#00ff00" transform="translate(242.4964141845703,59.85955810546875)"/>
<path d="M0 0 C1.12557312 -0.00700928 2.25114624 -0.01401855 3.41082764 -0.02124023 C7.13611428 -0.03886347 10.86064296 -0.02718133 14.5859375 -0.01367188 C17.17138821 -0.01636552 19.75683792 -0.02024688 22.34228516 -0.02526855 C27.76280283 -0.03116952 33.18303496 -0.022962 38.60351562 -0.00390625 C44.86801188 0.0178625 51.13198739 0.01081098 57.39647102 -0.01121187 C63.42574377 -0.03155849 69.45476196 -0.02939558 75.48406982 -0.01768494 C78.04856438 -0.01501312 80.61307219 -0.01830329 83.17755127 -0.02760315 C86.75935266 -0.03774109 90.34014866 -0.02230447 93.921875 0 C94.98589539 -0.00809692 96.04991577 -0.01619385 97.1461792 -0.02453613 C104.32135757 0.05840534 104.32135757 0.05840534 107.61767578 2.42492676 C109.06453349 4.67896908 109.50247503 5.85917604 109.4609375 8.51757812 C109.47640625 9.50757813 109.47640625 9.50757813 109.4921875 10.51757812 C108.6561279 13.6650966 107.64040076 14.59391458 104.9609375 16.51757812 C101.28903963 17.13697688 97.63799134 17.06343495 93.921875 17.03515625 C92.79630188 17.04216553 91.67072876 17.0491748 90.51104736 17.05639648 C86.78576072 17.07401972 83.06123204 17.06233758 79.3359375 17.04882812 C76.75048679 17.05152177 74.16503708 17.05540313 71.57958984 17.0604248 C66.15907217 17.06632577 60.73884004 17.05811825 55.31835938 17.0390625 C49.05386312 17.01729375 42.78988761 17.02434527 36.52540398 17.04636812 C30.49613123 17.06671474 24.46711304 17.06455183 18.43780518 17.05284119 C15.87331062 17.05016937 13.30880281 17.05345954 10.74432373 17.0627594 C7.16252234 17.07289734 3.58172634 17.05746072 0 17.03515625 C-1.59603058 17.04730164 -1.59603058 17.04730164 -3.2243042 17.05969238 C-10.39948257 16.97675091 -10.39948257 16.97675091 -13.69580078 14.61022949 C-15.14265849 12.35618717 -15.58060003 11.17598021 -15.5390625 8.51757812 C-15.55453125 7.52757812 -15.55453125 7.52757812 -15.5703125 6.51757812 C-13.53841277 -1.13192674 -6.44215516 -0.04902316 0 0 Z " fill="#00ff00" transform="translate(246.0390625,132.482421875)"/>
<path d="M0 0 C1.96066406 -0.03867187 1.96066406 -0.03867187 3.9609375 -0.078125 C7.80031498 0.26569985 9.63818881 0.86385748 12.625 3.25 C14.50961324 7.41185424 14.97636967 9.30130188 13.375 13.625 C11.625 16.25 11.625 16.25 9.625 17.25 C6.52834962 17.56569929 3.42327954 17.57411736 0.3125 17.625 C-0.54279297 17.66238281 -1.39808594 17.69976562 -2.27929688 17.73828125 C-6.79339442 17.80121987 -8.74677661 17.7279613 -12.4453125 14.9140625 C-14.375 12.25 -14.375 12.25 -14.9375 9.25 C-14.24706143 5.56766096 -13.00686072 3.88186072 -10.375 1.25 C-6.78498391 0.05332797 -3.7845161 0.04461119 0 0 Z " fill="#00ff00" transform="translate(202.375,59.75)"/>
<path d="M0 0 C3.2541511 2.72645092 3.81628531 4.75511903 4.3125 8.9375 C2.26704545 14.46022727 2.26704545 14.46022727 -0.6875 15.9375 C-3.97187736 16.25430807 -7.26471139 16.26162248 -10.5625 16.3125 C-11.92955078 16.36857422 -11.92955078 16.36857422 -13.32421875 16.42578125 C-20.04506294 16.51434289 -20.04506294 16.51434289 -23.2890625 13.6015625 C-25.00519221 10.33228747 -25.29485879 8.58165272 -24.6875 4.9375 C-21.82977174 0.34472244 -21.82977174 0.34472244 -18.9453125 -0.68359375 C-12.67511242 -1.73585916 -6.1070499 -1.75965845 0 0 Z " fill="#00ff00" transform="translate(212.6875,97.0625)"/>
<path d="M0 0 C0.90234375 -0.01095703 1.8046875 -0.02191406 2.734375 -0.03320312 C9.28860906 0.03951397 9.28860906 0.03951397 12.56640625 2.44921875 C14.29557883 4.99821702 14.92632929 6.46833024 15 9.5625 C12.72289157 15.20105422 12.72289157 15.20105422 10 16.5625 C6.71562264 16.87930807 3.42278861 16.88662248 0.125 16.9375 C-1.24205078 16.99357422 -1.24205078 16.99357422 -2.63671875 17.05078125 C-9.35756294 17.13934289 -9.35756294 17.13934289 -12.6015625 14.2265625 C-14.31769221 10.95728747 -14.60735879 9.20665272 -14 5.5625 C-10.68206616 -0.69549187 -6.37894294 -0.16858635 0 0 Z " fill="#00ff00" transform="translate(202,132.4375)"/>
<path d="M0 0 C2.91781637 2.27954404 2.97820387 3.82563093 3.4375 7.5 C3 11 3 11 1.375 13.4375 C-1.75683492 15.49791771 -3.31544773 15.6767545 -7 15 C-10.36344489 12.51397551 -11.80057749 11.08574477 -12.5625 6.9375 C-12 4 -12 4 -10.5 1.625 C-6.73102871 -0.82483134 -4.45665069 -0.5659239 0 0 Z " fill="#00ff00" transform="translate(96,375)"/>
</svg>