<svg version="1.1" xmlns="http://www.w3.org/2000/svg" width="512px" height="512px" transform="rotate(0) scale(1, 1)">
<path d="M0 0 C8.09156225 -0.16604481 16.00252109 0.32524864 24.05078125 1.13671875 C25.26718796 1.25803665 26.48359467 1.37935455 27.73686218 1.50434875 C30.29617205 1.76264354 32.85515615 2.02418484 35.41381836 2.28881836 C39.28939392 2.68513716 43.1668622 3.05662701 47.04492188 3.42773438 C66.11223814 5.33686162 83.0704608 7.5654095 96.3828125 22.7109375 C104.30865684 33.15199443 107.30117014 43.00617126 108.59326172 55.90112305 C109.38471872 63.47813401 111.03043381 69.43494822 115 76 C115.2990625 76.70640625 115.598125 77.4128125 115.90625 78.140625 C117.29511598 80.50169716 118.51973125 80.89765833 121 82 C122.63907347 83.14681048 124.26327786 84.31505787 125.875 85.5 C131.00013544 89.37006244 131.00013544 89.37006244 137 91 C139.58306396 89.76123043 141.90859106 88.29263586 144.3046875 86.72265625 C159.27770381 77.15294583 177.22982847 73.59805846 194.75 73.6875 C195.89307617 73.69241455 197.03615234 73.6973291 198.21386719 73.70239258 C216.74759818 73.95871013 232.82833639 79.3398079 248.91796875 88.328125 C251.90888036 90.06650914 251.90888036 90.06650914 255 91 C265.45930111 85.97781848 274.89450497 79.08365577 279.30859375 68.078125 C280.66822927 63.99153689 281.21261289 60.10517531 281.59472656 55.80639648 C282.72576786 43.50315244 285.52949812 34.01323207 293 24 C293.70125 22.989375 294.4025 21.97875 295.125 20.9375 C305.4332498 9.11429975 320.60915644 5.69877406 335.5078125 4.296875 C336.754487 4.16935852 338.0011615 4.04184204 339.28561401 3.91046143 C342.56542437 3.57824097 345.84612956 3.25836669 349.12768555 2.94396973 C352.44972767 2.62134872 355.76955347 2.27766519 359.08984375 1.9375 C361.64571587 1.68111798 364.20170215 1.4258709 366.7578125 1.171875 C367.93723419 1.05318054 369.11665588 0.93448608 370.33181763 0.81219482 C376.91249623 0.1832128 383.3894603 -0.1581609 390 0 C385.94078351 4.89493583 381.6587276 9.43219416 377.09765625 13.859375 C375.78145086 15.15318802 374.4657101 16.44747384 373.15039062 17.7421875 C371.1101963 19.74543863 369.06719059 21.74544538 367.01586914 23.73730469 C353.10877812 37.15350548 353.10877812 37.15350548 344.625 54.3125 C344.32851563 55.25738281 344.03203125 56.20226563 343.7265625 57.17578125 C342.33035197 62.60298672 341.88600159 67.78292651 341.6875 73.375 C340.50033976 95.46594495 331.27900932 112.86825826 314.93945312 127.80712891 C310.16645977 132.02766475 305.048071 135.7604146 299.81225586 139.38452148 C296.00315251 141.96349234 296.00315251 141.96349234 294 146 C294.505776 148.72298132 294.505776 148.72298132 295.375 151.6875 C297.93616017 160.91485745 298.14148192 169.68943382 298.11352539 179.20898438 C298.11367142 180.51713104 298.11381744 181.82527771 298.1139679 183.17306519 C298.11425335 186.73860739 298.10839742 190.30411555 298.10139394 193.86964989 C298.09511839 197.60389404 298.09455329 201.33813908 298.09336853 205.0723877 C298.09026756 212.13407263 298.08207088 219.19574198 298.07201904 226.25742006 C298.06081948 234.30098122 298.05533779 242.34454314 298.05032361 250.38811016 C298.03988718 266.92541588 298.02231175 283.46270595 298 300 C297.42450409 299.99920441 296.84900818 299.99840881 296.256073 299.99758911 C290.25317982 299.99514684 284.25157644 300.03441601 278.24902344 300.09765625 C276.01047766 300.11579787 273.77182003 300.12338811 271.53320312 300.12011719 C268.31032077 300.11725495 265.08974936 300.1526252 261.8671875 300.1953125 C260.87008759 300.18621857 259.87298767 300.17712463 258.84567261 300.16775513 C254.14753689 300.26549985 250.92148304 300.45767816 247.37109375 303.7265625 C245.09415781 306.47093841 244.24006264 308.55492592 244.1953125 312.1796875 C244.16953125 313.1078125 244.14375 314.0359375 244.1171875 314.9921875 C244.11976563 315.94351562 244.12234375 316.89484375 244.125 317.875 C244.0940625 319.33679688 244.0940625 319.33679688 244.0625 320.828125 C244.01560814 323.21960983 243.99553879 325.60815163 244 328 C244.79354385 327.99111755 245.58708771 327.98223511 246.40467834 327.9730835 C253.94935369 327.89233303 261.4938142 327.83173268 269.03881168 327.79275131 C272.91612008 327.77203563 276.79306609 327.74401888 280.67016602 327.69824219 C284.42442223 327.65420245 288.17833395 327.63074313 291.9328289 327.62049103 C293.35231373 327.61320221 294.77178358 327.59897543 296.19111824 327.57707977 C314.6342461 327.3043486 332.15173733 332.2372306 346 345 C346.33 345.66 346.66 346.32 347 347 C345.89718873 348.27200971 344.79269231 349.54255853 343.6875 350.8125 C342.76517578 351.87404297 342.76517578 351.87404297 341.82421875 352.95703125 C340.26665665 354.70136739 338.67341125 356.36778041 337 358 C333.04964018 356.09763778 329.36793435 353.82423563 325.6328125 351.53515625 C322.81284112 349.89087027 319.93259284 348.43209709 317 347 C316.85900879 347.70495605 316.71801758 348.40991211 316.57275391 349.13623047 C314.38183594 360.09082031 312.19091797 371.04541016 310 382 C330.79 395.86 330.79 395.86 352 410 C351.63840383 389.89717626 351.63840383 389.89717626 345.3046875 371.84375 C344 369 344 369 345 366 C347.43359375 364.17578125 347.43359375 364.17578125 350.4375 362.3125 C351.92056641 361.37857422 351.92056641 361.37857422 353.43359375 360.42578125 C356 359 356 359 358 359 C367.96799022 376.8427025 368.57636449 392.84350103 368.40557575 412.96397471 C368.38027872 416.45524471 368.37819813 419.94653396 368.37347412 423.43788147 C368.3611263 430.02488164 368.32841803 436.61161083 368.28807616 443.19849259 C368.24310044 450.70772798 368.22130711 458.2169775 368.20129442 465.72631443 C368.15967619 481.15103661 368.08866491 496.57547242 368 512 C362.72 512 357.44 512 352 512 C352 498.8 352 485.6 352 472 C350.35 471.34 348.7 470.68 347 470 C345.31097245 469.0314821 343.64518608 468.02171981 342 466.98046875 C341.02804687 466.36880859 340.05609375 465.75714844 339.0546875 465.12695312 C337.54261719 464.16692383 337.54261719 464.16692383 336 463.1875 C324.70752412 456.05662457 313.35717974 449.03063508 302 442 C302 465.1 302 488.2 302 512 C296.72 512 291.44 512 286 512 C286 507.71 286 503.42 286 499 C275.44 499 264.88 499 254 499 C254 493.72 254 488.44 254 483 C264.56 483 275.12 483 286 483 C286 478.38 286 473.76 286 469 C280.72 469 275.44 469 270 469 C270 463.72 270 458.44 270 453 C275.28 453 280.56 453 286 453 C286 445.74 286 438.48 286 431 C284.35 430.34 282.7 429.68 281 429 C279.48505288 428.07684981 277.9953434 427.11122407 276.53125 426.109375 C275.71269531 425.56539063 274.89414062 425.02140625 274.05078125 424.4609375 C272.34299803 423.31544125 270.64247214 422.1590543 268.94921875 420.9921875 C267.72138672 420.18394531 267.72138672 420.18394531 266.46875 419.359375 C265.73076172 418.85889648 264.99277344 418.35841797 264.23242188 417.84277344 C261.97391092 416.74326849 261.97391092 416.74326849 259.45458984 417.67358398 C257.15207804 418.91781978 255.25990671 420.18590187 253.2578125 421.86328125 C252.58363281 422.42080078 251.90945313 422.97832031 251.21484375 423.55273438 C250.52519531 424.13345703 249.83554687 424.71417969 249.125 425.3125 C235.1211778 437 235.1211778 437 232 437 C230.37643654 435.03062339 228.86440434 433.06654852 227.375 431 C226.95476562 430.42765625 226.53453125 429.8553125 226.1015625 429.265625 C225.06194199 427.84796067 224.03022409 426.42450738 223 425 C227.09492898 420.65419592 231.59856311 417.13230205 236.375 413.5625 C238.56742898 411.91817827 240.75397537 410.26894839 242.92236328 408.59301758 C244.25361473 407.57228718 245.60505404 406.57705902 246.97998047 405.6159668 C252.43077956 401.54118845 253.7683921 397.15062939 255.375 390.6875 C255.64900635 389.67236328 255.9230127 388.65722656 256.20532227 387.61132812 C256.81358572 385.35086466 257.41105503 383.08747773 257.99951172 380.82177734 C259.11369139 376.56570886 260.27276585 372.32339478 261.44140625 368.08203125 C263.64901615 360.06040869 265.83127023 352.0322228 268 344 C255.79088439 342.66635127 242.87168433 341.43997123 232.57568359 349.11376953 C226.97540232 354.00726461 221.97727832 359.41896716 217.07556152 365.00183105 C214.72852274 367.64072744 212.29518576 370.1976201 209.86914062 372.76367188 C205.16122933 377.76767738 200.55072323 382.85272355 196 388 C192.61115646 386.55708813 190.66008134 384.7828501 188.24243164 382.02514648 C187.15057053 380.79918762 187.15057053 380.79918762 186.03665161 379.54846191 C185.25240814 378.66493042 184.46816467 377.78139893 183.66015625 376.87109375 C164.39845907 353.39041299 164.39845907 353.39041299 138.06005859 341.6875 C132.64440974 341.79504133 127.30058875 342.96523835 122 344 C123.87206553 351.08869227 125.75755146 358.17367084 127.66002274 365.25426769 C128.54310091 368.54256506 129.42159313 371.83194385 130.28955078 375.12426758 C131.28869608 378.91338687 132.30789046 382.69697081 133.328125 386.48046875 C133.63558655 387.65772018 133.9430481 388.83497162 134.25982666 390.04789734 C134.55983582 391.14866104 134.85984497 392.24942474 135.16894531 393.38354492 C135.42653625 394.34951096 135.6841272 395.31547699 135.94952393 396.31071472 C138.13365807 401.90223644 142.16766041 405.11503856 146.875 408.625 C148.04093958 409.50314332 149.20628406 410.38207723 150.37109375 411.26171875 C150.97034668 411.71208496 151.56959961 412.16245117 152.18701172 412.62646484 C155.13369937 414.85890017 158.03528064 417.14773549 160.9375 419.4375 C161.51661133 419.89318359 162.09572266 420.34886719 162.69238281 420.81835938 C165.65565992 423.15027971 168.61566663 425.48630799 171.57421875 427.82421875 C173.90879737 429.6687214 176.25038197 431.50371894 178.59765625 433.33203125 C180.88163321 435.11179597 183.13355405 436.92399636 185.37109375 438.76171875 C186.43454591 439.61241678 187.4983324 440.4626971 188.5625 441.3125 C189.49191406 442.07175781 190.42132813 442.83101563 191.37890625 443.61328125 C193.88837512 445.29058704 193.88837512 445.29058704 196.4921875 444.5234375 C200.52331102 442.07462415 203.8686833 438.93125747 207.37890625 435.80078125 C210 434 210 434 212.07421875 433.921875 C214.81819759 435.45805788 216.33036308 437.45974642 218.25 439.9375 C218.95640625 440.83339844 219.6628125 441.72929687 220.390625 442.65234375 C222 445 222 445 222 447 C219.97096601 448.70522037 217.9395749 450.30091868 215.8125 451.875 C214.07719174 453.1788994 212.34394496 454.48295561 210.62817383 455.8125 C209 457 209 457 206.125 458.5546875 C202.483588 462.74498881 203.21546073 467.89396617 203.1875 473.25 C203.16236328 474.37664062 203.13722656 475.50328125 203.11132812 476.6640625 C203.05246647 479.44233266 203.02336907 482.22120464 203 485 C197.72 485 192.44 485 187 485 C187.17015625 482.62748047 187.17015625 482.62748047 187.34375 480.20703125 C188.16371677 467.73472037 188.16371677 467.73472037 182.96875 456.96875 C179.65498007 454.09604898 176.02098552 451.73988205 172.2890625 449.44775391 C168.50003641 447.05132422 165.02874243 444.25879782 161.5 441.5 C160.08676818 440.42598941 158.67270389 439.35307334 157.2578125 438.28125 C152.22629091 434.43402483 147.32139823 430.43501529 142.43945312 426.40039062 C140.6382827 424.91807861 138.82033798 423.45866163 137 422 C136.39317383 421.48695313 135.78634766 420.97390625 135.16113281 420.4453125 C133.17475038 418.79183559 133.17475038 418.79183559 130 417 C126.44241371 418.02566858 123.51410151 419.81226346 120.42578125 421.8203125 C119.17764648 422.62275391 119.17764648 422.62275391 117.90429688 423.44140625 C116.16462209 424.57147382 114.42503998 425.70168406 112.68554688 426.83203125 C111.85732422 427.36441406 111.02910156 427.89679688 110.17578125 428.4453125 C109.04523315 429.18031982 109.04523315 429.18031982 107.8918457 429.93017578 C106 431 106 431 104 431 C104 457.73 104 484.46 104 512 C98.72 512 93.44 512 88 512 C88 488.9 88 465.8 88 442 C81.07 446.29 74.14 450.58 67 455 C64.87691406 456.31097656 62.75382812 457.62195313 60.56640625 458.97265625 C59.71369141 459.49923828 58.86097656 460.02582031 57.98242188 460.56835938 C56.31100334 461.60034903 54.63909735 462.63154949 52.96679688 463.66210938 C49.44213959 465.84014586 45.93970159 468.02026674 42.52734375 470.37109375 C40 472 40 472 38 472 C38 475.96 38 479.92 38 484 C32.72 484 27.44 484 22 484 C21.90690651 471.48151195 21.83603642 458.96310763 21.79275131 446.44434261 C21.77196608 440.63000612 21.74381557 434.81590822 21.69824219 429.00170898 C21.6544593 423.38011424 21.63079492 417.75874754 21.62049103 412.13699532 C21.61315749 410.00301085 21.59883858 407.86903743 21.57707977 405.73515129 C21.35054677 382.57683431 25.59741312 363.79184599 42.3125 346.625 C54.45207936 335.10796317 69.72839533 327.85416519 86.6262207 327.88647461 C87.59291939 327.88625557 87.59291939 327.88625557 88.57914734 327.8860321 C90.69472704 327.88672494 92.81021706 327.89448769 94.92578125 327.90234375 C96.39837089 327.90421017 97.87096115 327.90563301 99.34355164 327.90663147 C103.20852388 327.91043904 107.0734582 327.92025421 110.93841553 327.93133545 C114.88667284 327.9415875 118.83493632 327.94613721 122.78320312 327.95117188 C130.52215265 327.96187813 138.261071 327.97893331 146 328 C146.0062981 324.62331917 145.94644678 321.25086028 145.875 317.875 C145.87757813 316.92367188 145.88015625 315.97234375 145.8828125 314.9921875 C145.85703125 314.0640625 145.83125 313.1359375 145.8046875 312.1796875 C145.79421387 311.33132324 145.78374023 310.48295898 145.77294922 309.60888672 C144.58276709 305.5917401 142.58177157 303.18510662 139 301 C135.37148692 300.1459808 131.84801408 300.16142844 128.1328125 300.1953125 C127.09808807 300.18160614 126.06336365 300.16789978 124.99728394 300.15377808 C121.70607892 300.11651329 118.41638585 300.12019084 115.125 300.125 C112.88799728 300.10687089 110.65101453 300.08606754 108.4140625 300.0625 C102.94256035 300.01068232 97.47172503 299.99243562 92 300 C91.92961764 282.82219386 91.87686973 265.64443333 91.84456348 248.46651554 C91.82915799 240.4887768 91.80819088 232.51112814 91.77368164 224.53344727 C91.74358413 217.57227096 91.72437922 210.61115998 91.71773452 203.6499204 C91.71385634 199.97108611 91.70487768 196.2924385 91.68280983 192.61366463 C91.59735504 177.79906069 91.54633066 163.48219447 95 149 C95.33909967 147.33449698 95.67484775 145.66828202 96 144 C91.20013542 140.14207126 86.39812867 136.29524206 81.5 132.5625 C64.55303508 119.3152246 52.23600117 103.81213 49 82 C48.80032799 79.32971965 48.62791525 76.67317407 48.5 74 C47.19659163 46.7872974 31.51939041 32.32233091 13.3125 14.3125 C10.78491358 11.81144329 8.26064517 9.30710348 5.73828125 6.80078125 C5.16032303 6.23112137 4.58236481 5.66146149 3.9868927 5.07453918 C2.63900827 3.73513421 1.31655065 2.37021622 0 1 C0 0.67 0 0.34 0 0 Z M43 20 C43.825 20.886875 44.65 21.77375 45.5 22.6875 C57.75181615 37.08265987 63.5125145 53.3675273 64.4375 72 C65.29729675 88.37826635 71.30419991 101.98861086 83.22070312 113.40429688 C89.4412821 118.98301589 96.49178034 125.24589017 104 129 C104.52787109 128.07380859 104.52787109 128.07380859 105.06640625 127.12890625 C108.16361525 121.81593938 111.47750305 116.91642953 115.3203125 112.1171875 C117.6673853 109.15878411 119.83034745 106.0901112 122 103 C121.27554688 102.48050781 120.55109375 101.96101563 119.8046875 101.42578125 C117.80227575 99.9813749 115.80645038 98.5278052 113.81640625 97.06640625 C111.82910976 95.60832048 109.82618268 94.17142307 107.8125 92.75 C98.14890617 83.3011527 94.34310829 73.2076867 93.0625 60.1875 C91.64907584 46.12241672 88.1890554 36.69144275 77.05859375 27.375 C67.19979676 20.45943468 54.58830339 20.42647309 43 20 Z M308.81640625 31.08984375 C300.43659405 39.90216238 298.21146853 48.05381266 297.0625 59.9375 C295.67015045 73.81832901 291.20980675 85.1991736 280.109375 94.39453125 C278.25948273 95.72754186 276.3852334 97.02789837 274.48046875 98.28125 C272.02026792 99.98595609 270.04665753 101.82453186 268 104 C268.6290625 104.71542969 269.258125 105.43085937 269.90625 106.16796875 C276.11380749 113.39453794 281.23364447 120.74541781 286 129 C287.80047773 127.65846757 289.59895963 126.31421666 291.390625 124.9609375 C293.28679748 123.53596956 295.19466062 122.12651698 297.109375 120.7265625 C311.29240963 110.25377778 322.16100338 97.99225303 325 80 C325.27034586 77.26531832 325.46213549 74.53469271 325.63183594 71.79199219 C326.80748282 52.81006113 331.86956331 36.88893872 345.2421875 22.8984375 C347.11323467 21.30891834 347.11323467 21.30891834 347 20 C333.23188254 19.74345123 319.16087866 21.24692151 308.81640625 31.08984375 Z M130 118 C116.63213449 133.29033446 108.99013393 151.70225436 108 172 C114.6 170.68 121.2 169.36 128 168 C128.33 171.3 128.66 174.6 129 178 C129.31090485 180.00360906 129.63267732 182.0059626 130 184 C128.783125 184.103125 127.56625 184.20625 126.3125 184.3125 C120.13730191 185.11164328 114.0672345 186.59986896 108 188 C108 200.21 108 212.42 108 225 C112.51664772 226.50554924 116.86696988 227.71610316 121.49902344 228.69580078 C122.22510803 228.85214996 122.95119263 229.00849915 123.69927979 229.16958618 C126.08516645 229.68204465 128.47215021 230.18912645 130.859375 230.6953125 C132.53078492 231.05116455 134.20219194 231.40703025 135.87359619 231.76290894 C139.37317219 232.50691089 142.87341223 233.24770164 146.37402344 233.98681641 C150.83874283 234.93020703 155.30066855 235.88617114 159.76205063 236.84520149 C163.21292661 237.58469418 166.66569382 238.31503836 170.11902618 239.04296494 C171.76380472 239.39125749 173.40788377 239.74287178 175.05120087 240.09799576 C190.9342575 243.52385231 202.89507132 242.70488036 218.66015625 239.31640625 C220.45934581 238.93688671 222.25870081 238.55815074 224.05821228 238.18016052 C227.80894129 237.39017279 231.5581903 236.59361883 235.30639648 235.79174805 C240.11983989 234.76212354 244.9357724 233.74477345 249.75272465 232.73170567 C253.4584355 231.95174112 257.16325495 231.16761574 260.86776543 230.38197136 C262.64469375 230.00521042 264.42178964 229.62923896 266.19905281 229.25406075 C268.67009676 228.73131535 271.14000167 228.20351008 273.60961914 227.67407227 C274.71677528 227.44102135 274.71677528 227.44102135 275.84629822 227.20326233 C279.20715859 226.69696207 279.20715859 226.69696207 282 225 C282.08858646 222.26105915 282.11523479 219.5474673 282.09765625 216.80859375 C282.0962413 215.98875504 282.09482635 215.16891632 282.09336853 214.32423401 C282.08775289 211.69528618 282.07519779 209.06642227 282.0625 206.4375 C282.05748701 204.65950643 282.05292376 202.88151154 282.04882812 201.10351562 C282.03777839 196.73564455 282.02050331 192.36783652 282 188 C278.66800182 187.27979483 275.33595696 186.55980583 272.00390625 185.83984375 C270.96027924 185.61428299 269.91665222 185.38872223 268.84140015 185.15632629 C263.07475024 183.91044383 257.30754064 182.66723994 251.53930664 181.42871094 C231.42982249 177.10890164 231.42982249 177.10890164 223.00105286 175.21192932 C219.99578363 174.53602315 216.988288 173.8704001 213.98043823 173.20608521 C212.63539104 172.90580392 211.29152532 172.60017242 209.94900513 172.28878784 C208.10325627 171.86104175 206.25285666 171.45351677 204.40234375 171.046875 C203.39679443 170.81838867 202.39124512 170.58990234 201.35522461 170.35449219 C193.28504879 169.50184755 185.26860374 171.40997569 177.3984375 173.06640625 C176.435961 173.26475571 175.4734845 173.46310516 174.48184204 173.66746521 C171.44522011 174.29438658 168.41011241 174.92831541 165.375 175.5625 C163.30087781 175.99200304 161.22665985 176.42104383 159.15234375 176.84960938 C154.10044041 177.89440333 149.0498815 178.945479 144 180 C143.86722656 179.08476562 143.73445313 178.16953125 143.59765625 177.2265625 C143.42105469 176.03804688 143.24445313 174.84953125 143.0625 173.625 C142.88847656 172.44164062 142.71445313 171.25828125 142.53515625 170.0390625 C142.16537214 167.09297619 142.16537214 167.09297619 141 165 C141.63164062 164.87471924 142.26328125 164.74943848 142.9140625 164.62036133 C145.94293887 164.01889587 148.97145507 163.41563207 152 162.8125 C153.11963135 162.59053955 154.2392627 162.3685791 155.39282227 162.13989258 C161.15692402 160.99143194 166.91122335 159.81336714 172.65234375 158.5546875 C173.70873047 158.32547607 174.76511719 158.09626465 175.85351562 157.86010742 C177.85539845 157.42350299 179.85554259 156.97881902 181.85351562 156.5246582 C183.23893555 156.22434692 183.23893555 156.22434692 184.65234375 155.91796875 C185.44632568 155.74031982 186.24030762 155.5626709 187.05834961 155.37963867 C198.00026401 153.9675151 208.01271168 156.41166932 218.66015625 158.71875 C220.45931497 159.10080558 222.2586706 159.48193493 224.05821228 159.86218262 C228.7663546 160.85946043 233.47186864 161.86862163 238.17687988 162.8805542 C242.98561729 163.91282875 247.7965516 164.93475103 252.60742188 165.95703125 C258.00356542 167.1037059 263.39949296 168.25126217 268.79347229 169.40808105 C270.01628151 169.66989418 270.01628151 169.66989418 271.26379395 169.93699646 C272.79147488 170.26421328 274.31898551 170.59222655 275.84629822 170.92115784 C278.89622777 171.67815255 278.89622777 171.67815255 282 172 C281.88399745 170.31185763 281.75668975 168.62449113 281.625 166.9375 C281.52058594 165.52791016 281.52058594 165.52791016 281.4140625 164.08984375 C280.98158115 160.29698454 280.98158115 160.29698454 279 154 C268.44 154 257.88 154 247 154 C247 148.72 247 143.44 247 138 C255.58 138 264.16 138 273 138 C268.13807084 127.85590452 268.13807084 127.85590452 264 124 C261.41225229 123.73846931 259.07100347 123.65041562 256.48828125 123.70703125 C255.76005661 123.71127609 255.03183197 123.71552094 254.28153992 123.71989441 C251.95814873 123.73667267 249.6356285 123.77432145 247.3125 123.8125 C245.73634066 123.82754803 244.16016771 123.84123623 242.58398438 123.85351562 C238.72205167 123.88402062 234.86199937 123.94273807 231 124 C231 118.72 231 113.44 231 108 C236.28 108 241.56 108 247 108 C242.96147575 103.75157582 242.96147575 103.75157582 238.46875 100.90234375 C237.82921387 100.57758057 237.18967773 100.25281738 236.53076172 99.91821289 C235.86061035 99.59457764 235.19045898 99.27094238 234.5 98.9375 C233.8002002 98.59388428 233.10040039 98.25026855 232.37939453 97.89624023 C197.34184075 81.14830542 156.63620942 90.38386314 130 118 Z M108 242 C108 255.86 108 269.72 108 284 C114.6 284 121.2 284 128 284 C127.566875 282.63875 127.13375 281.2775 126.6875 279.875 C123.14772961 267.93037196 121.46680094 256.3943699 121 244 C119.58461283 243.66127487 118.16762037 243.32925376 116.75 243 C115.96109375 242.814375 115.1721875 242.62875 114.359375 242.4375 C111.74443998 241.87845172 111.74443998 241.87845172 108 242 Z M273.25 243 C272.05117188 243.2784375 272.05117188 243.2784375 270.828125 243.5625 C270.22484375 243.706875 269.6215625 243.85125 269 244 C268.96559814 244.61818604 268.93119629 245.23637207 268.89575195 245.87329102 C268.1950728 257.57843503 267.24581857 268.33675569 263.0234375 279.33203125 C261.88061516 281.83496566 261.88061516 281.83496566 262 284 C268.6 284 275.2 284 282 284 C282 270.14 282 256.28 282 242 C278.72782865 242 276.37445544 242.26483401 273.25 243 Z M137 248 C135.76147481 264.54807269 141.68075881 278.83992729 152.3125 291.3125 C163.6423587 303.2547835 178.22387243 309.68977769 194.625 310.375 C211.04849234 310.01613192 224.88526475 303.63128729 236.75 292.375 C247.76871975 280.74412915 253.43320982 266.21123216 253.06323242 250.27734375 C253.04236572 249.52582031 253.02149902 248.77429688 253 248 C245.12219793 249.03329085 237.39814639 250.50278976 229.640625 252.19921875 C228.71930786 252.39943634 227.79799072 252.59965393 226.84875488 252.80593872 C223.00937111 253.64213341 219.17081688 254.48125369 215.33642578 255.34008789 C212.50296069 255.97258765 209.66607218 256.58718971 206.828125 257.19921875 C205.97478577 257.39496994 205.12144653 257.59072113 204.24224854 257.79240417 C194.66963954 259.82574414 186.15941437 257.74147968 176.7265625 255.71484375 C175.15822159 255.3840255 175.15822159 255.3840255 173.55819702 255.04652405 C170.24625892 254.34756411 166.93554105 253.6430449 163.625 252.9375 C160.29294419 252.22884339 156.96063894 251.52146576 153.62753296 250.81776428 C151.56018493 250.38118265 149.49344808 249.94169465 147.42739868 249.49900818 C146.49567841 249.30202835 145.56395813 249.10504852 144.60400391 248.90209961 C143.37564316 248.64015053 143.37564316 248.64015053 142.12246704 248.37290955 C139.86670601 247.91347716 139.86670601 247.91347716 137 248 Z M162 318 C160.75612598 323.93917453 160.01725758 329.78219272 163.3125 335.13006592 C167.67576385 340.57988473 172.86575958 345.23129242 178 349.9375 C179.54507469 351.40723286 181.08678078 352.88051561 182.625 354.35742188 C186.37900298 357.94713053 190.17557084 361.48547929 194 365 C196.79274972 363.71409709 198.95026811 362.33903992 201.20800781 360.25708008 C201.80832825 359.70502396 202.40864868 359.15296783 203.02716064 358.58418274 C205.74216591 356.02609367 208.43930829 353.4506341 211.11914062 350.85571289 C212.53190475 349.50105857 213.95965393 348.16184973 215.40234375 346.83911133 C224.41120459 339.14047838 224.41120459 339.14047838 228.91992188 328.66552734 C229.06362577 325.03999132 228.67870827 321.56705293 228 318 C226.57349121 318.54515259 226.57349121 318.54515259 225.11816406 319.10131836 C203.69773627 327.20151927 183.34017576 326.54952628 162 318 Z M89 344 C92.70206583 362.84662112 92.70206583 362.84662112 96.83105469 381.60302734 C97.49133326 384.47819049 98 387.03779171 98 390 C96.43725586 391.38769531 96.43725586 391.38769531 94.21484375 392.828125 C93.38557373 393.37299561 92.55630371 393.91786621 91.7019043 394.47924805 C90.78965088 395.06359619 89.87739746 395.64794434 88.9375 396.25 C87.9988208 396.86335205 87.0601416 397.4767041 86.09301758 398.10864258 C83.06832677 400.08233275 80.03458639 402.04156607 77 404 C75.0149729 405.28936121 73.03059008 406.57971488 71.046875 407.87109375 C70.07580811 408.5026387 69.10474121 409.13418365 68.10424805 409.78486633 C66.1629057 411.05122985 64.22424874 412.32171984 62.28833008 413.59635925 C57.91459567 416.47404188 53.53579417 419.29955639 49.02734375 421.9621582 C41.57092139 426.20776886 41.57092139 426.20776886 36.76953125 433.00537109 C36.42431886 436.22853796 36.571852 438.97844839 37 442.1875 C37.0721875 443.23486328 37.144375 444.28222656 37.21875 445.36132812 C37.40593651 447.9234435 37.66616747 450.453564 38 453 C44.71275118 449.81442222 50.91591824 446.03796768 57.1875 442.0625 C59.33308172 440.7118398 61.47891972 439.36158664 63.625 438.01171875 C65.23181641 436.99924072 65.23181641 436.99924072 66.87109375 435.96630859 C71.46303092 433.08058278 76.07362207 430.22547009 80.6875 427.375 C81.5316748 426.85301025 82.37584961 426.33102051 83.24560547 425.79321289 C84.9523581 424.73793109 86.65922671 423.68283683 88.36621094 422.62792969 C93.01613922 419.75383608 97.66430157 416.87689008 102.3125 414 C103.16610107 413.47196777 104.01970215 412.94393555 104.89916992 412.39990234 C109.94106395 409.27975273 114.97449098 406.14646727 120 403 C119.36200089 396.38369483 117.86164959 390.22337421 116.09375 383.82421875 C115.80898804 382.77724319 115.52422607 381.73026764 115.23083496 380.65156555 C114.32566 377.32879279 113.41284202 374.0081736 112.5 370.6875 C111.88623664 368.43698038 111.27295047 366.18633057 110.66015625 363.93554688 C109.53989573 359.82955572 108.41895261 355.72376275 107.29101562 351.61987305 C106.95245544 350.38698799 106.95245544 350.38698799 106.60705566 349.12919617 C106.11580367 347.40617155 105.56658118 345.69974355 105 344 C99.72 344 94.44 344 89 344 Z M285 344 C284.33613281 346.38992188 283.67226563 348.77984375 282.98828125 351.2421875 C278.99414062 365.62109375 278.99414062 365.62109375 278.3354187 367.99127197 C277.89441455 369.57970303 277.45425395 371.16836851 277.0149231 372.75726318 C275.88040228 376.85611997 274.73032143 380.9495633 273.55224609 385.03613281 C273.31998825 385.84970245 273.08773041 386.66327209 272.84843445 387.50149536 C272.40683984 389.0468735 271.96020337 390.59082315 271.50764465 392.13302612 C269.86252469 397.50606915 269.86252469 397.50606915 270 403 C272.02660865 404.93730454 272.02660865 404.93730454 274.84375 406.4609375 C275.89304687 407.08935547 276.94234375 407.71777344 278.0234375 408.36523438 C279.1822338 409.03525634 280.34108957 409.70517546 281.5 410.375 C282.69131233 411.08195241 283.88140303 411.79096716 285.0703125 412.50195312 C287.51826767 413.96465325 289.97054068 415.41968374 292.42578125 416.87011719 C297.67674959 419.9845793 302.83576766 423.2444582 308 426.5 C316.11670608 431.58534541 324.24600689 436.65006379 332.39599609 441.68188477 C334.08144277 442.72309194 335.76535182 443.76678682 337.44921875 444.81054688 C338.47917969 445.44541016 339.50914062 446.08027344 340.5703125 446.734375 C341.47539551 447.29350586 342.38047852 447.85263672 343.31298828 448.42871094 C346.15047308 450.08799244 349.04555272 451.56100145 352 453 C354.34969625 439.84134173 354.34969625 439.84134173 350.35772705 427.63549805 C344.87422708 422.25596193 338.17561187 418.56167561 331.5625 414.75 C329.63005703 413.55838361 327.70226063 412.35919744 325.77929688 411.15234375 C322.02206443 408.80987982 318.24293762 406.51337123 314.43408203 404.25585938 C309.24057543 401.16852158 304.15081636 397.93989035 299.08984375 394.640625 C298.36599991 394.16880798 297.64215607 393.69699097 296.89637756 393.21087646 C295.26258688 392.14312738 293.631004 391.07200096 292 390 C293.46498591 380.35877779 295.49452176 370.88468014 297.625 361.375 C298.112347 359.19397772 298.59874824 357.01276115 299.08261108 354.83096313 C299.51582794 352.8781709 299.95239925 350.92612372 300.38916016 348.97412109 C301.06706184 346.17951592 301.06706184 346.17951592 301 344 C295.72 344 290.44 344 285 344 Z M52.2890625 359.515625 C43.84040148 368.68516154 37.82859458 380.68967286 37.90234375 393.30078125 C37.90556641 394.27724609 37.90878906 395.25371094 37.91210938 396.25976562 C37.92048828 397.26716797 37.92886719 398.27457031 37.9375 399.3125 C37.94201172 400.33923828 37.94652344 401.36597656 37.95117188 402.42382812 C37.96291816 404.94927882 37.97934435 407.47460905 38 410 C43.06561544 408.32404377 47.1727481 405.37833065 51.546875 402.40625 C52.35868225 401.85892212 53.1704895 401.31159424 54.00689697 400.74768066 C55.71629054 399.59338438 57.42408438 398.43671595 59.13037109 397.27783203 C61.75023033 395.49984368 64.37665816 393.73189026 67.00390625 391.96484375 C68.66446469 390.84174025 70.32463469 389.71806218 71.984375 388.59375 C72.77285828 388.0635022 73.56134155 387.53325439 74.37371826 386.98693848 C75.09827209 386.49302612 75.82282593 385.99911377 76.56933594 385.49023438 C77.20933533 385.05658569 77.84933472 384.62293701 78.50872803 384.17614746 C80.1510574 383.05233997 80.1510574 383.05233997 81 381 C80.6051933 378.58983845 80.1414717 376.25319402 79.6015625 373.875 C79.44714691 373.1722998 79.29273132 372.46959961 79.13363647 371.74560547 C78.80552347 370.2587267 78.47410279 368.77257459 78.13964844 367.28710938 C77.62740367 365.01068198 77.12533215 362.73219703 76.625 360.453125 C76.30528331 359.01028451 75.98499003 357.56757164 75.6640625 356.125 C75.51297028 355.44163574 75.36187805 354.75827148 75.20620728 354.05419922 C74.39437413 350.42871122 74.39437413 350.42871122 73 347 C65.55629525 347 57.38640204 354.69337997 52.2890625 359.515625 Z " fill="#00ff00" transform="translate(61,0)"/>
<path d="M0 0 C0.66 0 1.32 0 2 0 C0.54141271 7.50730381 -1.81902527 14.46235189 -4.46484375 21.62890625 C-4.89881973 22.8179808 -5.33279572 24.00705536 -5.77992249 25.23216248 C-6.927127 28.37215607 -8.07919831 31.51027277 -9.23370361 34.64758301 C-10.40163397 37.82533403 -11.56274539 41.00557405 -12.72460938 44.18554688 C-14.4317557 48.85342243 -16.14091405 53.52054146 -17.85522461 58.18579102 C-18.22283905 59.1920755 -18.59045349 60.19835999 -18.96920776 61.23513794 C-19.60708998 62.94610962 -20.26429883 64.65017699 -20.95193481 66.34176636 C-23.54588746 72.75117462 -23.5438498 77.29447404 -21.13574219 83.73901367 C-20.72821716 84.84423874 -20.32069214 85.94946381 -19.90081787 87.08818054 C-19.45401672 88.26951065 -19.00721558 89.45084076 -18.546875 90.66796875 C-18.09024475 91.89856522 -17.6336145 93.12916168 -17.16314697 94.39704895 C-15.95012139 97.6658971 -14.7255344 100.9302924 -13.49835205 104.19384766 C-12.26426416 107.48152786 -11.04064168 110.7730943 -9.81640625 114.06445312 C-8.01082239 118.91654192 -6.19876062 123.76615916 -4.38183594 128.61401367 C-3.78526184 130.22123795 -3.78526184 130.22123795 -3.17663574 131.8609314 C-2.39043384 133.9583874 -1.58666917 136.04934156 -0.76574707 138.13345337 C-0.3896228 139.1068869 -0.01349854 140.08032043 0.37402344 141.08325195 C0.7118988 141.93748245 1.04977417 142.79171295 1.39788818 143.67182922 C2.05637978 146.21800229 1.87049277 147.55081732 1 150 C0.12770752 149.39079712 0.12770752 149.39079712 -0.76220703 148.76928711 C-13.42910545 139.92773749 -26.13724948 131.15258682 -38.91015625 122.46484375 C-45.32193808 118.10368222 -51.71051677 113.70909513 -58.09667969 109.31054688 C-62.06245069 106.5798826 -66.03087212 103.85306906 -69.99926758 101.1262207 C-73.34679253 98.82564144 -76.6926307 96.52268182 -80.03515625 94.21484375 C-88.96511991 88.05390291 -97.95511288 81.99093816 -107 76 C-105.73261516 72.19784548 -104.36514726 71.64680828 -101.0390625 69.48828125 C-99.49412109 68.47411133 -99.49412109 68.47411133 -97.91796875 67.43945312 C-96.83128906 66.73755859 -95.74460937 66.03566406 -94.625 65.3125 C-87.51218624 60.67998476 -80.50815091 55.97635901 -73.67089844 50.94458008 C-69.28924358 47.75446299 -64.80072647 44.72491312 -60.3125 41.6875 C-58.37874075 40.37394153 -56.44514805 39.06013783 -54.51171875 37.74609375 C-53.57376465 37.10913574 -52.63581055 36.47217773 -51.66943359 35.81591797 C-47.97968772 33.3059189 -44.30060496 30.78064593 -40.625 28.25 C-39.98860596 27.81196045 -39.35221191 27.3739209 -38.6965332 26.92260742 C-37.43204248 26.0520461 -36.16763718 25.18136067 -34.90332031 24.31054688 C-32.27300883 22.49942424 -29.64130985 20.69032329 -27.00952148 18.88134766 C-25.68338002 17.96975631 -24.35736815 17.0579764 -23.03149414 16.14599609 C-19.51415121 13.72681629 -15.99474514 11.31070346 -12.47265625 8.8984375 C-11.73466797 8.39248047 -10.99667969 7.88652344 -10.23632812 7.36523438 C-8.81244066 6.38911027 -7.38798238 5.41381818 -5.96289062 4.43945312 C-2.83824457 2.39861789 -2.83824457 2.39861789 0 0 Z M-35.796875 44.53515625 C-36.580625 45.09033936 -37.364375 45.64552246 -38.171875 46.2175293 C-39.02265625 46.82636963 -39.8734375 47.43520996 -40.75 48.0625 C-42.55639268 49.34241555 -44.3637199 50.62101295 -46.171875 51.8984375 C-47.5940332 52.90342285 -47.5940332 52.90342285 -49.04492188 53.92871094 C-54.93155002 58.05479762 -60.88830529 62.07851599 -66.83886719 66.11157227 C-68.15612793 67.00573853 -68.15612793 67.00573853 -69.5 67.91796875 C-70.66015625 68.70337036 -70.66015625 68.70337036 -71.84375 69.50463867 C-72.91109375 70.24484253 -72.91109375 70.24484253 -74 71 C-74.7528125 71.51731689 -75.505625 72.03463379 -76.28125 72.56762695 C-76.8484375 73.04031006 -77.415625 73.51299316 -78 74 C-78 74.66 -78 75.32 -78 76 C-75.88370954 77.68055284 -75.88370954 77.68055284 -73.13671875 79.4140625 C-72.10353516 80.09339844 -71.07035156 80.77273437 -70.00585938 81.47265625 C-68.91080078 82.18292969 -67.81574219 82.89320313 -66.6875 83.625 C-59.47262973 88.33476835 -52.36684233 93.12057839 -45.42651367 98.22802734 C-42.44097888 100.40822772 -39.39944514 102.46624791 -36.3125 104.5 C-35.29800781 105.1703125 -34.28351563 105.840625 -33.23828125 106.53125 C-32.49964844 107.0159375 -31.76101562 107.500625 -31 108 C-30.67 107.34 -30.34 106.68 -30 106 C-30.7237658 103.83581669 -31.54798414 101.70501374 -32.4140625 99.59375 C-32.93362732 98.27917294 -33.45181107 96.96404937 -33.96875 95.6484375 C-34.78942166 93.58014953 -35.61801201 91.51682115 -36.47167969 89.46191406 C-41.79660115 76.57098462 -41.79660115 76.57098462 -40.09765625 70.75 C-39.43184919 69.15232911 -38.73094061 67.5689414 -38 66 C-37.30689727 64.0981208 -36.62636408 62.19162416 -35.95703125 60.28125 C-34.8763685 57.35453766 -33.78686076 54.43120961 -32.69726562 51.5078125 C-32.34986328 50.56679687 -32.00246094 49.62578125 -31.64453125 48.65625 C-31.32846924 47.80869141 -31.01240723 46.96113281 -30.68676758 46.08789062 C-29.89584675 44.04967954 -29.89584675 44.04967954 -30 42 C-32.67305126 42 -33.62683451 42.98494566 -35.796875 44.53515625 Z " fill="#00ff00" transform="translate(107,162)"/>
<path d="M0 0 C3.83472656 1.75600102 7.26269428 4.08831458 10.75 6.4375 C11.40685791 6.87779541 12.06371582 7.31809082 12.74047852 7.77172852 C19.52485795 12.33082506 26.25758235 16.96472735 32.98388672 21.60888672 C36.31948556 23.91044184 39.65997241 26.204879 43 28.5 C44.33335708 29.41663212 45.66669041 30.3332988 47 31.25 C47.66 31.70375 48.32 32.1575 49 32.625 C56.33333333 37.66666667 63.66666667 42.70833333 71 47.75 C71.6604834 48.20407227 72.3209668 48.65814453 73.00146484 49.12597656 C74.32995339 50.03933272 75.65840413 50.95274386 76.98681641 51.86621094 C81.09276609 54.68949217 85.20020731 57.51058823 89.30859375 60.33032227 C91.31914711 61.71162753 93.32770865 63.09578691 95.3359375 64.48046875 C97.62490428 66.0582251 99.92146864 67.62137777 102.2265625 69.17578125 C103.14179688 69.79839844 104.05703125 70.42101562 105 71.0625 C105.78375 71.58972656 106.5675 72.11695313 107.375 72.66015625 C107.91125 73.10230469 108.4475 73.54445313 109 74 C109 74.66 109 75.32 109 76 C106.86426437 77.56804728 104.72928517 79.01276887 102.5 80.4375 C101.11255763 81.34264177 99.72586264 82.24893 98.33984375 83.15625 C97.62038574 83.62546875 96.90092773 84.0946875 96.15966797 84.578125 C92.76042026 86.81611038 89.41065382 89.12404174 86.0625 91.4375 C85.39992188 91.89439209 84.73734375 92.35128418 84.0546875 92.82202148 C82.70825341 93.75062478 81.36206194 94.67957997 80.01611328 95.60888672 C76.68051444 97.91044184 73.34002759 100.204879 70 102.5 C68.66664292 103.41663212 67.33330959 104.3332988 66 105.25 C42 121.75 42 121.75 39.99926758 123.12548828 C38.66835665 124.0404997 37.33746466 124.95553869 36.0065918 125.87060547 C32.63635196 128.18782581 29.26576567 130.50453932 25.89453125 132.8203125 C17.58432835 138.52961975 9.2851132 144.25433074 1 150 C-0.36541421 146.29082815 0.38928053 144.12590495 1.75073242 140.48803711 C2.36213326 138.82997292 2.36213326 138.82997292 2.98588562 137.13841248 C3.43784805 135.9467598 3.88981049 134.75510712 4.35546875 133.52734375 C4.81351395 132.29391739 5.27155914 131.06049103 5.7434845 129.78968811 C6.96374982 126.50398291 8.19694644 123.22328048 9.4329834 119.94348145 C10.67445462 116.64286721 11.90427152 113.33792189 13.13476562 110.03320312 C14.95065843 105.15887333 16.77373083 100.28732017 18.60229492 95.41772461 C19.00298187 94.33385468 19.40366882 93.24998474 19.8164978 92.13327026 C20.58895537 90.08822266 21.39437202 88.05523776 22.23648071 86.03787231 C26.83565431 74.68654492 23.55281399 66.85442481 19.4140625 55.71484375 C18.95098656 54.44681384 18.48879377 53.1784611 18.0274353 51.9098053 C16.81762881 48.59047568 15.59583242 45.27568791 14.37139893 41.96173096 C13.13335874 38.60417084 11.90710903 35.2423124 10.6796875 31.88085938 C8.87666421 26.94819917 7.06840169 22.01751628 5.25244141 17.08959961 C4.86437317 16.03473358 4.47630493 14.97986755 4.07647705 13.89303589 C3.13925359 11.37424451 2.17151009 8.86987458 1.19677734 6.36547852 C0 3 0 3 0 0 Z M32 42 C33.46701378 47.25786863 35.09089451 52.37838633 37.1484375 57.4375 C37.51324219 58.35273438 37.87804687 59.26796875 38.25390625 60.2109375 C39.00460601 62.07853202 39.77570687 63.93804821 40.56640625 65.7890625 C43.35154178 72.92785755 42.89722515 77.01578429 40 84 C39.30382056 85.90498506 38.61121763 87.8112803 37.921875 89.71875 C36.82683111 92.64680214 35.72289302 95.57110941 34.609375 98.4921875 C34.0834375 99.90371094 34.0834375 99.90371094 33.546875 101.34375 C33.22557617 102.19130859 32.90427734 103.03886719 32.57324219 103.91210938 C31.7399494 106.03661676 31.7399494 106.03661676 33 108 C48.4255919 97.49701162 48.4255919 97.49701162 63.8125 86.9375 C69.17585292 83.24211753 74.55964743 79.58156544 80 76 C78.49664394 71.60017794 75.12153253 69.79626985 71.375 67.4375 C70.00964018 66.55328118 68.64508327 65.66782157 67.28125 64.78125 C66.57484375 64.32492188 65.8684375 63.86859375 65.140625 63.3984375 C61.67839805 61.1366177 58.27703524 58.78849324 54.875 56.4375 C54.21467773 55.9832666 53.55435547 55.5290332 52.87402344 55.06103516 C49.62786325 52.82580374 46.39257529 50.57646113 43.171875 48.3046875 C42.57262207 47.88388916 41.97336914 47.46309082 41.35595703 47.02954102 C39.72685414 45.88411395 38.10157698 44.73325119 36.4765625 43.58203125 C34.20887985 41.82055439 34.20887985 41.82055439 32 42 Z " fill="#00ff00" transform="translate(403,162)"/>
<path d="M0 0 C5.28 0 10.56 0 16 0 C16 13.53 16 27.06 16 41 C10.72 41 5.44 41 0 41 C0 27.47 0 13.94 0 0 Z " fill="#00ff00" transform="translate(248,186)"/>
<path d="M0 0 C5.28 0 10.56 0 16 0 C16 6.93 16 13.86 16 21 C10.72 21 5.44 21 0 21 C0 14.07 0 7.14 0 0 Z " fill="#00ff00" transform="translate(298,196)"/>
<path d="M0 0 C5.28 0 10.56 0 16 0 C16 6.93 16 13.86 16 21 C10.72 21 5.44 21 0 21 C0 14.07 0 7.14 0 0 Z " fill="#00ff00" transform="translate(198,196)"/>
<path d="M0 0 C5.28 0 10.56 0 16 0 C16 5.28 16 10.56 16 16 C10.72 16 5.44 16 0 16 C0 10.72 0 5.44 0 0 Z " fill="#00ff00" transform="translate(285,483)"/>
<path d="M0 0 C5.28 0 10.56 0 16 0 C16.020625 2.454375 16.04125 4.90875 16.0625 7.4375 C16.071604 8.21150146 16.08070801 8.98550293 16.09008789 9.78295898 C16.09724913 11.52221717 16.05024702 13.26145304 16 15 C15 16 15 16 11.62109375 16.09765625 C10.22652508 16.09191424 8.83198403 16.07890228 7.4375 16.0625 C4.983125 16.041875 2.52875 16.02125 0 16 C0 10.72 0 5.44 0 0 Z " fill="#00ff00" transform="translate(262,108)"/>
<path d="M0 0 C5.28 0 10.56 0 16 0 C16 4.62 16 9.24 16 14 C10.72 14 5.44 14 0 14 C0 9.38 0 4.76 0 0 Z " fill="#00ff00" transform="translate(83,498)"/>
<path d="M0 0 C5.28 0 10.56 0 16 0 C16 4.29 16 8.58 16 13 C10.72 13 5.44 13 0 13 C0 8.71 0 4.42 0 0 Z " fill="#00ff00" transform="translate(248,499)"/>
</svg>