<svg xmlns="http://www.w3.org/2000/svg" width="128" height="128" viewBox="0 0 128 128">
  <title>Web Secure</title>
  <path d="M114,15.25H14A9.761,9.761,0,0,0,4.25,25v77A10.762,10.762,0,0,0,15,112.75h98A10.762,10.762,0,0,0,123.75,102V25A9.761,9.761,0,0,0,114,15.25ZM120.25,25V36.683H52.888L61.37,18.75H114A6.257,6.257,0,0,1,120.25,25ZM14,18.75H57.5L49.016,36.683H7.75V25A6.257,6.257,0,0,1,14,18.75Zm99,90.5H15A7.258,7.258,0,0,1,7.75,102V40.183h112.5V102A7.258,7.258,0,0,1,113,109.25Z"/>
  <path d="M21.57,33.466a5.75,5.75,0,1,0-5.75-5.75A5.756,5.756,0,0,0,21.57,33.466Zm0-8a2.25,2.25,0,1,1-2.25,2.25A2.253,2.253,0,0,1,21.57,25.466Z"/>
  <path d="M37.626,33.466a5.75,5.75,0,1,0-5.75-5.75A5.756,5.756,0,0,0,37.626,33.466Zm0-8a2.25,2.25,0,1,1-2.25,2.25A2.253,2.253,0,0,1,37.626,25.466Z"/>
  <path d="M67.522,29.466h44.745a1.75,1.75,0,0,0,0-3.5H67.522a1.75,1.75,0,0,0,0,3.5Z"/>
  <path d="M58.215,61.247A1.749,1.749,0,0,0,56.606,59.5a29.341,29.341,0,0,1-18.112-7.956,1.807,1.807,0,0,0-2.59,0A29.107,29.107,0,0,1,17.792,59.5a1.748,1.748,0,0,0-1.609,1.752s.027,5.792,0,9.031c-.023,2.745.367,26.857,20.9,28.185.038,0,.075,0,.113,0l.113,0c20.535-1.328,20.926-25.44,20.9-28.185C58.188,67.04,58.215,61.249,58.215,61.247ZM37.2,94.962c-17.214-1.2-17.536-22.254-17.516-24.655.018-2.187.012-5.532,0-7.492A33.126,33.126,0,0,0,37.2,55.133a33.118,33.118,0,0,0,17.51,7.682c-.006,1.96-.013,5.305.006,7.492C54.735,72.708,54.413,93.757,37.2,94.962Z"/>
  <path d="M110.068,54.966h-37a1.75,1.75,0,0,0,0,3.5h37a1.75,1.75,0,0,0,0-3.5Z"/>
  <path d="M110.068,66.466h-37a1.75,1.75,0,0,0,0,3.5h37a1.75,1.75,0,0,0,0-3.5Z"/>
  <path d="M110.068,77.966h-37a1.75,1.75,0,0,0,0,3.5h37a1.75,1.75,0,0,0,0-3.5Z"/>
  <path d="M110.068,89.466h-37a1.75,1.75,0,0,0,0,3.5h37a1.75,1.75,0,0,0,0-3.5Z"/>
  <path d="M46.547,66.331a1.747,1.747,0,0,0-2.414.545l-7.644,12.1-6.57-5.6a1.75,1.75,0,0,0-2.269,2.664l8.106,6.907a1.749,1.749,0,0,0,1.135.418,1.664,1.664,0,0,0,.263-.02,1.75,1.75,0,0,0,1.217-.8l8.721-13.813A1.749,1.749,0,0,0,46.547,66.331Z"/>
</svg>
