<?xml version="1.0" encoding="UTF-8"?>
<!DOCTYPE svg PUBLIC "-//W3C//DTD SVG 1.1//EN" "http://www.w3.org/Graphics/SVG/1.1/DTD/svg11.dtd">
<!-- Creator: CorelDRAW -->
<svg xmlns="http://www.w3.org/2000/svg" xml:space="preserve" width="2048px" height="2048px" style="shape-rendering:geometricPrecision; text-rendering:geometricPrecision; image-rendering:optimizeQuality; fill-rule:evenodd; clip-rule:evenodd"
viewBox="0 0 2048 2048"
 xmlns:xlink="http://www.w3.org/1999/xlink">
 <defs>
  <style type="text/css">
   <![CDATA[
    .fil2 {fill:none}
    .fil1 {fill:#424242}
    .fil0 {fill:#424242;fill-rule:nonzero}
   ]]>
  </style>
 </defs>
 <g id="Layer_x0020_1">
  <metadata id="CorelCorpID_0Corel-Layer"/>
  <g id="_325601416">
   <path id="_325601464" class="fil0" d="M255.998 695.305l0 -204.814c0,-17.6728 14.328,-32.0008 32.0008,-32.0008l1472 0c17.6728,0 32.0008,14.328 32.0008,32.0008l0 204.814 -1536 0zm1026.79 -150.408c-17.6728,0 -32.0008,14.328 -32.0008,32.0008 0,17.6728 14.328,32.0008 32.0008,32.0008l16.5225 0c17.6728,0 32.0008,-14.328 32.0008,-32.0008 0,-17.6728 -14.328,-32.0008 -32.0008,-32.0008l-16.5225 0zm165.716 0c-17.6728,0 -32.0008,14.328 -32.0008,32.0008 0,17.6728 14.328,32.0008 32.0008,32.0008l16.5225 0c17.6728,0 32.0008,-14.328 32.0008,-32.0008 0,-17.6728 -14.328,-32.0008 -32.0008,-32.0008l-16.5225 0zm165.717 0c-17.6728,0 -32.0008,14.328 -32.0008,32.0008 0,17.6728 14.328,32.0008 32.0008,32.0008l16.5225 0c17.6728,0 32.0008,-14.328 32.0008,-32.0008 0,-17.6728 -14.328,-32.0008 -32.0008,-32.0008l-16.5225 0z"/>
   <path id="_325601104" class="fil1" d="M1792 1557.51l0 -830.203 -1536 0 0 830.203c0,17.6728 14.328,32.0008 32.0008,32.0008l1472 0c17.6728,0 32.0008,-14.328 32.0008,-32.0008zm-1142.83 -672.28c-40.5981,0 -81.1961,15.4866 -112.168,46.4599 -30.9733,30.9721 -46.4599,71.5701 -46.4599,112.168 0,40.5992 15.4866,81.1973 46.4599,112.169 30.9721,30.9733 71.5701,46.4599 112.168,46.4599 40.5981,0 81.1973,-15.4878 112.169,-46.4599 30.9721,-30.9721 46.4599,-71.5701 46.4599,-112.169 0,-40.5981 -15.4878,-81.1961 -46.4599,-112.168 -30.9721,-30.9721 -71.5713,-46.4599 -112.169,-46.4599zm182.882 307.572l0.320079 -0.32126c7.88268,-7.88268 18.2469,-11.8252 28.5898,-11.8252 10.3441,0 20.7083,3.94252 28.591,11.8252l183.522 183.522c7.88268,7.88268 11.8252,18.2469 11.8252,28.591 0,10.3429 -3.94252,20.7071 -11.8252,28.5898l-34.5792 34.5792c-7.88268,7.88268 -18.2469,11.8252 -28.591,11.8252 -10.3429,0 -20.7071,-3.94252 -28.5898,-11.8252l-182.178 -182.179 -0.147638 -0.144095 0.00472441 -0.0921261c-8.21103,-8.21339 -12.3201,-18.9744 -12.3201,-29.6965 0,-9.91536 3.51614,-19.8662 10.5413,-27.8055 0.295276,-0.368504 0.601182,-0.731103 0.920079,-1.08425l-20.804 -20.804c-37.4481,29.6847 -82.806,44.53 -128.162,44.53 -52.878,0 -105.76,-20.1744 -146.106,-60.5221 -40.3477,-40.3465 -60.5221,-93.228 -60.5221,-146.107 0,-52.878 20.1744,-105.76 60.5221,-146.106 40.3465,-40.3477 93.228,-60.5221 146.106,-60.5221 52.878,0 105.76,20.1744 146.107,60.5221 40.3465,40.3465 60.5221,93.228 60.5221,146.106 0,45.3567 -14.8441,90.7146 -44.5288,128.163l20.7815 20.7815zm-262.462 -204.509c0,10.3831 8.41772,18.8008 18.802,18.8008 0.414567,0.046063 60.5611,4.86851 70.4056,3.0874 2.3941,-0.433465 4.88504,-0.883465 8.17796,-0.883465 10.3831,0 18.8008,-8.4189 18.8008,-18.802 0,-10.3831 -8.41772,-18.8008 -18.8008,-18.8008 -24.7512,0 -45.2634,-2.84173 -67.7127,-2.84173 -17.4189,0 -29.6729,-8.89961 -29.6729,19.4398zm172.805 83.1426c-0.646063,-9.14528 -8.58544,-16.0382 -17.7307,-15.3921 -9.14646,0.646063 -16.0382,8.58544 -15.3933,17.7307l0.223229 3.09213c0.100394,1.40669 -0.0850394,2.59843 -0.500788,3.59764 -1.41378,3.3874 -5.56182,6.31536 -10.9583,8.68701l-0.0649607 -0.0236221c-0.217323,0.0956694 -0.431103,0.196063 -0.641339,0.298819 -7.13504,3.01654 -15.7595,4.73504 -24.0603,5.3315 -9.60591,0.690945 -18.0543,-0.0295276 -22.5449,-1.90158 -8.84764,-3.69213 -16.0169,-1.2 -24.5799,1.77638 -3.82205,1.32874 -8.22875,2.86299 -11.6728,2.97756 -9.14646,0.285827 -16.3288,7.93465 -16.0429,17.0811 0.287008,9.14528 7.93583,16.3288 17.0823,16.0417 8.57835,-0.287008 15.5209,-2.70118 21.5445,-4.79646 5.3315,-1.84961 24.8244,2.9315 38.5524,1.94528 11.6917,-0.842127 24.1382,-3.39567 34.8626,-7.95591 0.294095,-0.109843 0.588189,-0.227953 0.878741,-0.355512l-0.00826772 -0.0200788 0.00944883 -0.00354331 -0.0106299 -0.0248032c12.7559,-5.61851 23.2465,-14.1898 28.3099,-26.328 2.36339,-5.66693 3.45591,-11.8831 2.96811,-18.6662l-0.222047 -3.09213zm811.147 322.525c13.2543,0 24,-10.7457 24,-24 0,-13.2543 -10.7457,-24 -24,-24l-281.127 0c-13.2543,0 -24,10.7457 -24,24 0,13.2543 10.7457,24 24,24l281.127 0zm0 -211.551c13.2543,0 24,-10.7457 24,-24 0,-13.2543 -10.7457,-24 -24,-24l-372.185 0c-13.2543,0 -24,10.7457 -24,24 0,13.2543 10.7457,24 24,24l372.185 0zm0 -211.551c13.2543,0 24,-10.7457 24,-24 0,-13.2543 -10.7457,-24 -24,-24l-465.218 0c-13.2543,0 -24,10.7457 -24,24 0,13.2543 10.7457,24 24,24l465.218 0z"/>
  </g>
 </g>
 <rect class="fil2" width="2048" height="2048"/>
</svg>
